<?xml version="1.0" encoding="UTF-8" standalone="no"?>
<svg width="2000px" height="680px" viewBox="0 0 2000 680" version="1.1" xmlns="http://www.w3.org/2000/svg" xmlns:xlink="http://www.w3.org/1999/xlink">
    <!-- Generator: Sketch 42 (36781) - http://www.bohemiancoding.com/sketch -->
    <title>hero-content-stream-xlarge</title>
    <desc>Created with Sketch.</desc>
    <defs></defs>
    <g id="Transimision" stroke="none" stroke-width="1" fill="none" fill-rule="evenodd">
        <g id="hero-content-stream-xlarge" fill-rule="nonzero">
            <g id="Group" transform="translate(422.000000, 38.000000)">
                <path d="M1102.25393,73.8936416 L1117.82592,1.27222543 L1128.22758,1.27222543 L1143.79956,73.8936416 L1133.41534,73.8936416 L1129.50054,55.7687861 L1116.5268,55.7687861 L1112.63816,73.9284971 L1102.25393,73.8936416 Z M1117.82592,47.9263006 L1128.22758,47.9263006 L1122.99623,16.8003468 L1117.82592,47.9263006 Z" id="Shape" fill="#FFFFFF"></path>
                <rect id="Rectangle-path" fill="#E7503D" x="459.791974" y="502.189205" width="238.279224" height="100.427384"></rect>
                <path d="M521.2952,579.472543 L529.769985,532.809754 L543.057611,532.809754 L551.453926,579.472543 L540.991228,579.472543 L539.526451,570.157413 L533.475524,570.157413 L532.080497,579.472543 L521.2952,579.472543 Z M534.373572,563.569725 L538.56737,563.569725 L536.457393,546.14198 L534.373572,563.569725 Z" id="Shape" fill="#FFFFFF"></path>
                <path d="M579.589864,588.534971 C577.7305,587.696788 576.00107,586.596344 574.454424,585.267269 C572.592148,583.823854 570.970643,582.094465 569.650301,580.143512 L569.196918,580.143512 L568.717378,580.143512 C566.40218,580.198545 564.095052,579.850612 561.899186,579.115275 C560.155601,578.520968 558.608536,577.460048 557.426383,576.047991 C556.290592,574.635462 555.472787,572.994853 555.028681,571.237934 C554.505893,569.096776 554.259759,566.897497 554.296292,564.693815 L554.296292,547.501344 C554.259855,545.297666 554.505988,543.0984 555.028681,540.957225 C555.472787,539.200306 556.290592,537.559697 557.426383,536.147168 C558.608536,534.735111 560.155601,533.674191 561.899186,533.079884 C566.344243,531.709703 571.099231,531.709703 575.544288,533.079884 C577.298507,533.672556 578.857245,534.733211 580.051967,536.147168 C581.195949,537.558094 582.022627,539.198606 582.475825,540.957225 C583.0091,543.096792 583.261164,545.296682 583.225652,547.501344 L583.225652,564.719957 C583.225652,571.586488 581.246458,576.117702 577.288071,578.313598 C578.656092,579.849672 580.274539,581.143092 582.074755,582.138988 L579.589864,588.534971 Z M568.717378,572.266171 C569.253123,572.288289 569.782728,572.145318 570.234469,571.856618 C570.652884,571.569774 570.960543,571.148525 571.10636,570.662818 C571.261896,570.195588 571.369974,569.713897 571.42896,569.225029 C571.479863,568.692138 571.503145,568.156972 571.498711,567.621676 L571.498711,544.617052 C571.503098,544.081757 571.479817,543.546594 571.42896,543.013699 C571.370417,542.530447 571.262316,542.054491 571.10636,541.593338 C570.958781,541.110836 570.651293,540.692894 570.234469,540.408251 C569.782728,540.119552 569.253123,539.976581 568.717378,539.998699 C568.264068,539.98535 567.815465,540.093675 567.418259,540.312399 C567.098598,540.484537 566.823844,540.729284 566.616119,541.026936 C566.409413,541.372261 566.270344,541.753743 566.20633,542.151026 C566.122524,542.541248 566.070044,542.937537 566.04939,543.336113 L566.04939,544.617052 L566.04939,567.665246 L566.04939,568.928757 C566.069617,569.33025 566.1221,569.729469 566.20633,570.122558 C566.27055,570.519788 566.409606,570.901231 566.616119,571.246647 C567.093195,571.930475 567.883662,572.327119 568.717378,572.301026 L568.717378,572.266171 Z" id="Shape" fill="#FFFFFF"></path>
                <path d="M602.215448,580.178367 C599.910987,580.248514 597.609902,579.954428 595.397257,579.30698 C593.708536,578.782647 592.199093,577.79906 591.0378,576.466257 C589.923763,575.129449 589.130454,573.555671 588.718568,571.865332 C588.221072,569.744119 587.989695,567.569264 588.029774,565.390925 L588.029774,532.783613 L599.364363,532.783613 L599.364363,567.273121 C599.359932,567.81756 599.38905,568.361754 599.451552,568.902616 C599.520065,569.405622 599.633873,569.90142 599.79159,570.383974 C599.934892,570.882605 600.242025,571.318483 600.663482,571.621344 C601.613317,572.202394 602.808861,572.202394 603.758696,571.621344 C604.179665,571.318001 604.486668,570.882309 604.630588,570.383974 C604.78749,569.902232 604.895566,569.405953 604.953188,568.902616 C605.003963,568.360977 605.027244,567.817115 605.022939,567.273121 L605.022939,532.783613 L616.42728,532.783613 L616.42728,565.347355 C616.466909,567.526662 616.229602,569.702183 615.721047,571.821763 C615.301191,573.509157 614.508741,575.08123 613.401816,576.422688 C612.243909,577.759375 610.73327,578.743742 609.042359,579.26341 C606.82919,579.926069 604.525112,580.234866 602.215448,580.178367 L602.215448,580.178367 Z" id="Shape" fill="#FFFFFF"></path>
                <path d="M621.597596,579.472543 L621.597596,532.783613 L632.993218,532.783613 L632.993218,579.472543 L621.597596,579.472543 Z M623.960422,528.644523 L627.561334,516.967934 L638.224567,516.967934 L630.708862,528.644523 L623.960422,528.644523 Z" id="Shape" fill="#FFFFFF"></path>
                <path d="M138.491243,73.8936416 L138.491243,1.27222543 L154.58636,1.27222543 C162.183441,1.27222543 167.542668,2.82619942 170.664039,5.9341474 C173.785411,9.04209538 175.346096,14.4040318 175.346096,22.0199566 L175.346096,50.5404624 C175.346096,58.5107514 173.759254,64.3926156 170.585569,68.1860549 C167.411884,71.9794942 162.052658,73.8762139 154.50789,73.8762139 L138.491243,73.8936416 Z M148.875471,66.1121532 L154.595079,66.1121532 C156.061676,66.1373045 157.525806,65.9821965 158.954537,65.6503179 C160.09133,65.3762482 161.120459,64.7694439 161.910249,63.9075434 C162.573329,63.1873014 163.157877,62.3986168 163.654032,61.5547977 C164.170349,60.4612594 164.466593,59.2769675 164.525923,58.0692486 C164.700301,56.5007514 164.802022,55.2110983 164.831085,54.200289 C164.860148,53.1894798 164.860148,51.6151734 164.831085,49.4773699 L164.831085,24.5556936 L164.831085,21.3925578 C164.831085,20.6083092 164.790397,19.6817341 164.70902,18.6128324 C164.668056,17.761385 164.566074,16.9139677 164.403858,16.0770954 C164.270168,15.4555058 164.081258,14.758396 163.837129,13.9857659 C163.665544,13.3339637 163.369481,12.7214659 162.965237,12.1819942 C162.552514,11.6986304 162.106782,11.2444218 161.631243,10.8226301 C161.103213,10.3491537 160.482756,9.99014909 159.80899,9.76825145 C159.020326,9.51545388 158.212709,9.32605041 157.393851,9.20184971 C156.372664,9.04459633 155.340572,8.96883682 154.307355,8.97528902 L148.797001,8.97528902 L148.875471,66.1121532 Z" id="Combined-Shape" fill="#FFFFFF"></path>
                <polygon id="Shape" fill="#FFFFFF" points="199.244642 73.8936416 199.244642 1.27222543 209.62887 1.27222543 209.62887 73.8936416"></polygon>
                <path d="M254.2174,74.6256069 C247.672401,74.6256069 242.67937,72.7085549 239.238304,68.8744509 C235.797239,65.0403468 233.870359,59.8120231 233.457664,53.1894798 L243.841891,50.5753179 C244.353401,60.9506358 247.81481,66.1382948 254.226119,66.1382948 C259.41678,66.1382948 262.01211,63.5444653 262.01211,58.3568064 C262.026773,56.9066857 261.814972,55.4631566 261.384348,54.0782948 C260.966348,52.7689127 260.313418,51.5464838 259.457468,50.4707514 C258.735477,49.5449329 257.948808,48.6713618 257.103361,47.8565896 C256.400035,47.1943353 255.440955,46.3781358 254.226119,45.4079913 L241.252374,35.0297688 C238.836487,33.1226601 236.88653,30.6910933 235.550203,27.9192486 C234.089516,24.8515228 233.361267,21.4868074 233.422788,18.09 C233.422788,12.7396821 235.085195,8.48440751 238.410008,5.3241763 C241.73482,2.16394509 246.140779,0.58382948 251.627882,0.58382948 C257.521869,0.58382948 262.206832,2.03614162 265.682773,4.9407659 C269.158714,7.84539017 271.300661,11.9118642 272.108613,17.1401879 C272.18999,17.7211127 272.285898,18.5053613 272.396338,19.4929335 L262.01211,22.1070954 C262.01211,21.6481647 261.945265,20.9597688 261.811575,20.0419075 C261.519719,17.1679503 260.446286,14.4286631 258.707641,12.1209971 C257.097548,10.1342341 254.737629,9.1408526 251.627882,9.1408526 C249.50342,9.00520736 247.418383,9.75980655 245.873399,11.2234682 C244.447503,12.8124036 243.716099,14.9049555 243.841891,17.0356214 C243.834111,21.0961751 245.780782,24.9126878 249.07324,27.2918497 L262.046986,37.6700723 C268.963991,43.2643786 272.425401,49.9450145 272.431213,57.7119798 C272.431213,63.0332514 270.789151,67.1926734 267.505026,70.1902457 C264.220902,73.1878179 259.791693,74.6662717 254.2174,74.6256069 Z" id="Shape" fill="#FFFFFF"></path>
                <polygon id="Shape" fill="#FFFFFF" points="295.300927 73.8936416 295.300927 1.27222543 323.846654 1.27222543 323.846654 9.05371387 305.685154 9.05371387 305.685154 32.3981792 318.6589 32.3981792 318.6589 40.1796676 305.685154 40.1796676 305.685154 73.8936416"></polygon>
                <path d="M344.397136,73.8936416 L344.397136,1.27222543 L357.38832,1.27222543 C365.119091,1.27222543 370.931701,2.77101156 374.826149,5.76858382 C378.720598,8.76615607 380.679447,13.7504913 380.702698,20.7215896 C380.832152,24.4769371 380.041997,28.2070638 378.400904,31.587789 C376.994597,34.3797826 374.569612,36.5257604 371.626307,37.5829335 L383.300934,73.8936416 L373.038772,73.8936416 L362.576074,40.1796676 L354.790083,40.1796676 L354.790083,73.8936416 L344.397136,73.8936416 Z M354.781364,32.3981792 L357.397038,32.3981792 C361.72162,32.3981792 364.965057,31.4861272 367.127347,29.6620231 C369.289638,27.8379191 370.370784,24.8606792 370.370784,20.7303035 C370.370784,16.5999277 369.289638,13.6226879 367.127347,11.7985838 C364.965057,9.97447977 361.718714,9.05952312 357.38832,9.05371387 L354.772645,9.05371387 L354.781364,32.3981792 Z" id="Shape" fill="#FFFFFF"></path>
                <path d="M432.179171,73.4143786 C426.736722,75.0888833 420.916179,75.0888833 415.47373,73.4143786 C413.264396,72.6980495 411.23807,71.5085315 409.536149,69.9288295 C407.905338,68.3169098 406.615527,66.3936829 405.743421,64.273526 C404.747189,61.9188773 404.052887,59.4477726 403.677038,56.9190173 C403.248526,53.9614189 403.044502,50.9756595 403.066714,47.9872977 L403.066714,1.27222543 L413.450942,1.27222543 L413.450942,47.9263006 C413.450942,50.1686705 413.497443,52.0450578 413.590445,53.5554624 C413.702228,55.1887888 413.953078,56.809624 414.340271,58.4003757 C414.639884,59.8641667 415.2106,61.2590983 416.023022,62.5133237 C416.811649,63.6016647 417.856857,64.4786527 419.065923,65.0664884 C422.09885,66.4168016 425.56277,66.4168016 428.595697,65.0664884 C429.804763,64.4786527 430.849971,63.6016647 431.638598,62.5133237 C432.450293,61.2587187 433.020951,59.8639281 433.321349,58.4003757 C433.707308,56.8093792 433.958141,55.1886494 434.071176,53.5554624 C434.164177,52.0450578 434.210678,50.1686705 434.210678,47.9263006 L434.210678,1.27222543 L444.594906,1.27222543 L444.594906,47.9263006 C444.617118,50.9146624 444.413094,53.9004218 443.984582,56.8580202 C443.608733,59.3867755 442.914431,61.8578802 441.918199,64.2125289 C441.045883,66.3325735 439.756098,68.2557608 438.125471,69.8678324 C436.426701,71.4703514 434.396909,72.6809783 432.179171,73.4143786 Z" id="Shape" fill="#FFFFFF"></path>
                <polygon id="Shape" fill="#FFFFFF" points="479.069495 73.8936416 479.069495 10.5176445 466.09575 10.5176445 466.09575 1.27222543 502.427468 1.27222543 502.427468 10.5089306 489.453723 10.5089306 489.453723 73.8936416"></polygon>
                <polygon id="Shape" fill="#FFFFFF" points="524.137566 73.8936416 524.137566 1.27222543 552.683293 1.27222543 552.683293 9.05371387 534.521794 9.05371387 534.521794 32.3981792 547.495539 32.3981792 547.495539 40.1796676 534.521794 40.1796676 534.521794 66.1121532 552.683293 66.1121532 552.683293 73.8936416"></polygon>
                <path d="M609.138267,73.8936416 L609.138267,1.27222543 L625.233384,1.27222543 C632.830465,1.27222543 638.189691,2.82619942 641.311063,5.9341474 C644.432434,9.04209538 645.99312,14.4040318 645.99312,22.0199566 L645.99312,50.5404624 C645.99312,58.5107514 644.406277,64.3926156 641.232592,68.1860549 C638.058907,71.9794942 632.696775,73.8820231 625.146194,73.8936416 L609.138267,73.8936416 Z M619.522494,66.1121532 L625.242102,66.1121532 C626.7087,66.1373045 628.17283,65.9821965 629.60156,65.6503179 C630.738354,65.3762482 631.767482,64.7694439 632.557272,63.9075434 C633.220352,63.1873014 633.804901,62.3986168 634.301055,61.5547977 C634.817372,60.4612594 635.113616,59.2769675 635.172946,58.0692486 C635.347325,56.5007514 635.449045,55.2110983 635.478109,54.200289 C635.507172,53.1894798 635.507172,51.6151734 635.478109,49.4773699 L635.478109,24.5556936 L635.478109,21.3925578 C635.478109,20.6083092 635.43742,19.6817341 635.356044,18.6128324 C635.315079,17.761385 635.213097,16.9139677 635.050882,16.0770954 C634.917192,15.4555058 634.728282,14.758396 634.484152,13.9857659 C634.312568,13.3339637 634.016504,12.7214659 633.612261,12.1819942 C633.199537,11.6986304 632.753806,11.2444218 632.278267,10.8226301 C631.750237,10.3491537 631.129779,9.99014909 630.456014,9.76825145 C629.667349,9.51545388 628.859732,9.32605041 628.040874,9.20184971 C627.019687,9.04459633 625.987596,8.96883682 624.954378,8.97528902 L619.444024,8.97528902 L619.522494,66.1121532 Z" id="Shape" fill="#FFFFFF"></path>
                <polygon id="Shape" fill="#FFFFFF" points="669.61266 73.8936416 669.61266 1.27222543 698.158387 1.27222543 698.158387 9.05371387 679.970731 9.05371387 679.970731 32.3981792 692.944476 32.3981792 692.944476 40.1796676 679.970731 40.1796676 679.970731 66.1121532 698.132231 66.1121532 698.132231 73.8936416"></polygon>
                <polygon id="Shape" fill="#FFFFFF" points="754.587204 73.8936416 754.587204 1.27222543 762.373195 1.27222543 780.543414 46.183526 780.543414 1.27222543 790.927641 1.27222543 790.927641 73.8936416 783.551439 73.8936416 764.980151 25.5839306 764.980151 73.8936416"></polygon>
                <path d="M844.043271,73.4143786 C838.600822,75.0888833 832.780279,75.0888833 827.33783,73.4143786 C825.128495,72.6980495 823.102169,71.5085315 821.400249,69.9288295 C819.769438,68.3169098 818.479626,66.3936829 817.607521,64.273526 C816.611288,61.9188773 815.916986,59.4477726 815.541138,56.9190173 C815.112625,53.9614189 814.908602,50.9756595 814.930814,47.9872977 L814.930814,1.27222543 L825.315041,1.27222543 L825.315041,47.9263006 C825.315041,50.1686705 825.361542,52.0450578 825.454544,53.5554624 C825.566328,55.1887888 825.817178,56.809624 826.204371,58.4003757 C826.503984,59.8641667 827.074699,61.2590983 827.887121,62.5133237 C828.675749,63.6016647 829.720957,64.4786527 830.930023,65.0664884 C833.962949,66.4168016 837.42687,66.4168016 840.459797,65.0664884 C841.668862,64.4786527 842.71407,63.6016647 843.502698,62.5133237 C844.314393,61.2587187 844.88505,59.8639281 845.185448,58.4003757 C845.571407,56.8093792 845.822241,55.1886494 845.935275,53.5554624 C846.028277,52.0450578 846.074778,50.1686705 846.074778,47.9263006 L846.074778,1.27222543 L856.459005,1.27222543 L856.459005,47.9263006 C856.481217,50.9146624 856.277194,53.9004218 855.848681,56.8580202 C855.472833,59.3867755 854.778531,61.8578802 853.782298,64.2125289 C852.909982,66.3325735 851.620197,68.2557608 849.98957,69.8678324 C848.2908,71.4703514 846.261008,72.6809783 844.043271,73.4143786 L844.043271,73.4143786 Z" id="Shape" fill="#FFFFFF"></path>
                <polygon id="Shape" fill="#FFFFFF" points="880.470897 73.8936416 880.470897 1.27222543 909.016624 1.27222543 909.016624 9.05371387 890.855124 9.05371387 890.855124 32.3981792 903.82887 32.3981792 903.82887 40.1796676 890.855124 40.1796676 890.855124 66.1121532 909.016624 66.1121532 909.016624 73.8936416"></polygon>
                <path d="M949.882178,74.6256069 C943.337179,74.6256069 938.344147,72.7085549 934.903082,68.8744509 C931.462017,65.0403468 929.535137,59.8120231 929.122442,53.1894798 L939.506669,50.5753179 C940.018179,60.9506358 943.479588,66.1382948 949.890897,66.1382948 C955.081557,66.1382948 957.676888,63.5444653 957.676888,58.3568064 C957.69155,56.9066857 957.479749,55.4631566 957.049126,54.0782948 C956.631126,52.7689127 955.978196,51.5464838 955.122246,50.4707514 C954.400255,49.5449329 953.613586,48.6713618 952.768139,47.8565896 C952.064813,47.1943353 951.105732,46.3781358 949.890897,45.4079913 L936.917151,35.0297688 C934.484424,33.116579 932.521992,30.6724098 931.180106,27.8843931 C929.719418,24.8166673 928.991169,21.4519519 929.05269,18.0551445 C929.05269,12.7048266 930.715097,8.44955202 934.03991,5.28932081 C937.364722,2.1290896 941.770681,0.548973988 947.257784,0.548973988 C953.151771,0.548973988 957.836734,2.00128613 961.312675,4.9059104 C964.788616,7.81053468 966.930563,11.8770087 967.738515,17.1053324 C967.819892,17.6862572 967.9158,18.4705058 968.02624,19.458078 L957.642012,22.0722399 C957.642012,21.6133092 957.575167,20.9249133 957.441477,20.007052 C957.149621,17.1330948 956.076188,14.3938076 954.337543,12.0861416 C952.72745,10.0993786 950.367531,9.10599711 947.257784,9.10599711 C945.133322,8.97035186 943.048285,9.72495105 941.503301,11.1886127 C940.077405,12.7775481 939.346001,14.8701 939.471794,17.0007659 C939.464013,21.0613196 941.410684,24.8778323 944.703142,27.2569942 L957.676888,37.6352168 C964.593893,43.2295231 968.055303,49.910159 968.061115,57.6771243 C968.061115,62.998396 966.419053,67.1578179 963.134928,70.1553902 C959.850804,73.1529624 955.43322,74.6430347 949.882178,74.6256069 Z" id="Shape" fill="#FFFFFF"></path>
                <polygon id="Shape" fill="#FFFFFF" points="1000.05953 73.8936416 1000.05953 10.5176445 987.085787 10.5176445 987.085787 1.27222543 1023.41751 1.27222543 1023.41751 10.5089306 1010.44376 10.5089306 1010.44376 73.8936416"></polygon>
                <path d="M1045.10145,73.8936416 L1045.10145,1.27222543 L1058.07519,1.27222543 C1065.80596,1.27222543 1071.61857,2.77101156 1075.51302,5.76858382 C1079.40747,8.76615607 1081.36632,13.7504913 1081.38957,20.7215896 C1081.51489,24.4747354 1080.72177,28.2017364 1079.07906,31.5790751 C1077.67275,34.3710687 1075.24777,36.5170465 1072.30446,37.5742197 L1083.97909,73.8849277 L1073.73436,73.8849277 L1063.27167,40.1709538 L1055.48567,40.1709538 L1055.48567,73.8936416 L1045.10145,73.8936416 Z M1055.48567,32.3981792 L1058.10135,32.3981792 C1062.42593,32.3981792 1065.66937,31.4861272 1067.83166,29.6620231 C1069.99395,27.8379191 1071.07509,24.8606792 1071.07509,20.7303035 C1071.07509,16.5999277 1069.99395,13.6226879 1067.83166,11.7985838 C1065.66937,9.97447977 1062.42593,9.06242775 1058.10135,9.06242775 L1055.48567,9.06242775 L1055.48567,32.3981792 Z" id="Shape" fill="#FFFFFF"></path>
                <rect id="Rectangle-path" fill="#F9A51A" x="261.279721" y="473.163295" width="86.7880784" height="6.97109827"></rect>
                <polygon id="Shape" fill="#F9A51A" points="972.952427 320.98422 959.02832 307.434147 945.104213 320.98422 928.738809 305.063974 933.603964 300.070925 945.104213 311.250824 959.02832 297.700751 972.952427 311.250824 986.876534 297.700751 1000.80936 311.250824 1014.73347 297.700751 1028.66629 311.250824 1042.5904 297.700751 1056.52323 311.250824 1070.44733 297.700751 1084.38016 311.250824 1098.30427 297.700751 1112.23709 311.250824 1126.16992 297.700751 1140.10274 311.259538 1151.60299 300.070925 1156.46815 305.063974 1140.10274 320.98422 1126.16992 307.425434 1112.23709 320.98422 1098.30427 307.434147 1084.38016 320.98422 1070.44733 307.434147 1056.52323 320.98422 1042.5904 307.434147 1028.66629 320.98422 1014.73347 307.434147 1000.80936 320.98422 986.876534 307.434147"></polygon>
                <rect id="Rectangle-path" fill="#F9A51A" x="135.491937" y="102.823699" width="102.159525" height="6.97109827"></rect>
                <rect id="Rectangle-path" fill="#F9A51A" x="87.7820347" y="102.823699" width="22.7214921" height="6.97109827"></rect>
                <rect id="Rectangle-path" fill="#F9A51A" x="52.1478297" y="102.823699" width="11.360746" height="6.97109827"></rect>
                <rect id="Rectangle-path" fill="#F9A51A" x="0.191816127" y="102.823699" width="11.360746" height="6.97109827"></rect>
                <polygon id="Shape" fill="#F9A51A" points="157.88211 275.506517 157.88211 158.592486 135.884288 158.592486 135.884288 137.958035 207.510173 137.958035 207.510173 158.592486 185.852389 158.592486 185.852389 275.506517"></polygon>
                <path d="M225.009035,275.506517 L225.009035,137.958035 L259.823662,137.958035 C266.147837,137.880083 272.462796,138.464193 278.665237,139.700809 C283.637474,140.727997 288.370641,142.685213 292.615501,145.469393 C296.72269,148.229921 299.903532,152.161926 301.744205,156.753858 C303.761181,161.563916 304.772575,167.480636 304.778387,174.504017 C304.778387,183.351503 303.519957,190.514306 301.003097,195.992428 C298.486237,201.470549 294.155843,205.618353 288.011914,208.435838 L307.019148,275.532659 L278.464702,275.532659 L262.692185,213.489884 L252.979314,213.489884 L252.979314,275.541373 L225.009035,275.506517 Z M252.979314,196.532688 L259.954446,196.532688 C266.702886,196.532688 271.48957,194.943858 274.314499,191.766199 C277.139427,188.58854 278.551891,183.514162 278.551891,176.543064 C278.551891,169.740434 277.319618,164.776431 274.855072,161.651055 C272.390525,158.525679 267.961316,156.960087 261.567445,156.954277 L253.01419,156.954277 L252.979314,196.532688 Z" id="Shape" fill="#F9A51A"></path>
                <path d="M323.707151,275.506517 L350.605004,137.958035 L381.313022,137.958035 L408.123685,275.506517 L382.141319,275.506517 L377.075629,245.060246 L355.278342,245.060246 L350.212653,275.506517 L323.707151,275.506517 Z M357.902735,227.719639 L374.250701,227.719639 L366.037483,172.970376 L357.902735,227.719639 Z" id="Shape" fill="#F9A51A"></path>
                <polygon id="Shape" fill="#F9A51A" points="426.633941 275.506517 426.633941 137.958035 446.138154 137.958035 476.846172 209.411792 476.846172 137.958035 500.090799 137.958035 500.090799 275.506517 481.414883 275.506517 450.532487 199.547688 450.532487 275.541373"></polygon>
                <path d="M559.161447,277.327717 C546.373705,277.327717 536.826493,273.816026 530.519812,266.792645 C524.21313,259.769263 520.78369,248.972775 520.231492,234.403179 L544.470075,230.046243 C544.580515,238.620694 545.743037,245.077673 547.957641,249.417182 C550.172246,253.756691 553.523215,255.952587 558.01055,256.00487 C561.277237,256.00487 563.642969,254.953396 565.107747,252.850448 C566.66113,250.431564 567.428536,247.59198 567.304913,244.720405 C567.304913,239.300376 566.142391,234.751734 563.817347,231.07448 C561.492303,227.397225 557.714107,223.290087 552.482758,218.753064 L537.704197,205.978526 C534.413481,203.194206 531.373462,200.126788 528.619088,196.811532 C526.093236,193.536817 524.130785,189.864502 522.812291,185.945332 C521.185194,181.238427 520.38578,176.285513 520.449465,171.306026 C520.449465,160.187124 523.742308,151.572009 530.327995,145.460679 C536.913682,139.34935 545.96101,136.264639 557.469977,136.206546 C561.046099,136.17257 564.613683,136.561589 568.098335,137.365491 C570.987121,138.017786 573.767596,139.080035 576.355147,140.519913 C578.643869,141.839902 580.704718,143.519994 582.458387,145.495535 C584.161866,147.366588 585.626227,149.441851 586.817845,151.673671 C587.994408,153.980091 588.940625,156.396804 589.642773,158.888757 C590.377091,161.390295 590.930712,163.941307 591.299367,166.52211 C591.630686,168.927139 591.880628,171.541301 592.049194,174.364595 L567.97627,178.181272 C567.86583,175.357977 567.726328,173.008136 567.557762,171.131749 C567.378316,169.162915 567.060747,167.209106 566.6074,165.28474 C566.276091,163.607966 565.643961,162.004936 564.741552,160.553107 C563.928585,159.38622 562.845852,158.43265 561.585305,157.773382 C560.121184,157.041916 558.479729,156.739797 556.850934,156.901994 C554.03547,156.923821 551.386333,158.237984 549.666549,160.465968 C547.944748,162.787512 547.054184,165.620325 547.138063,168.508873 C547.110605,170.792535 547.4041,173.068741 548.009955,175.270838 C548.617709,177.346297 549.5857,179.298857 550.869759,181.039422 C551.970169,182.573827 553.176305,184.02967 554.47939,185.396358 C555.560535,186.505925 557.124127,187.998902 559.170166,189.875289 L573.695878,202.484263 C576.548335,205.004413 579.250049,207.690017 581.787031,210.527168 C584.206133,213.296977 586.385004,216.267507 588.30006,219.406604 C590.350071,222.823391 591.894781,226.518572 592.886209,230.37737 C593.987407,234.518871 594.532758,238.788316 594.507928,243.073483 C594.507928,253.082818 591.255772,261.297095 584.751462,267.716315 C578.247151,274.135535 569.717146,277.339335 559.161447,277.327717 Z" id="Shape" fill="#F9A51A"></path>
                <polygon id="Shape" fill="#F9A51A" points="613.236157 275.506517 615.476918 137.958035 644.94685 137.958035 662.288772 225.689306 680.554898 137.923179 709.187815 137.923179 711.463451 275.506517 690.930407 275.506517 689.020965 182.67763 671.173346 275.506517 654.075554 275.506517 635.765833 182.180939 634.02205 275.506517"></polygon>
                <polygon id="Shape" fill="#F9A51A" points="733.583338 275.506517 733.583338 137.958035 761.387958 137.958035 761.387958 275.506517"></polygon>
                <path d="M820.571952,277.327717 C807.78421,277.327717 798.236998,273.816026 791.930317,266.792645 C785.623635,259.769263 782.194195,248.972775 781.641997,234.403179 L805.88058,230.046243 C805.99102,238.620694 807.153542,245.077673 809.368146,249.417182 C811.582751,253.756691 814.945345,255.926445 819.455931,255.926445 C822.722617,255.926445 825.08835,254.874971 826.553127,252.772023 C828.106511,250.35314 828.873917,247.513555 828.750294,244.64198 C828.750294,239.221951 827.587772,234.673309 825.262728,230.996055 C822.937684,227.318801 819.159488,223.211662 813.928139,218.674639 L799.149578,205.900101 C795.858862,203.115782 792.818843,200.048363 790.064469,196.733107 C787.538617,193.458392 785.576166,189.786077 784.257671,185.866908 C782.630575,181.160002 781.83116,176.207088 781.894846,171.227601 C781.894846,160.108699 785.187689,151.493584 791.773376,145.382254 C798.359063,139.270925 807.40639,136.186214 818.915358,136.128121 C822.491479,136.094145 826.059064,136.483164 829.543715,137.287066 C832.432502,137.939361 835.212977,139.00161 837.800528,140.441488 C840.08925,141.761477 842.150099,143.441569 843.903768,145.41711 C845.607247,147.288163 847.071608,149.363427 848.263225,151.595246 C849.439788,153.901666 850.386006,156.318379 851.088154,158.810332 C851.822471,161.31187 852.376093,163.862882 852.744748,166.443685 C853.076066,168.848714 853.326009,171.462876 853.494574,174.286171 L829.42165,178.102847 C829.311211,175.279552 829.171708,172.929711 829.003142,171.053324 C828.823696,169.08449 828.506128,167.130681 828.052781,165.206315 C827.721472,163.529542 827.089341,161.926511 826.186933,160.474682 C825.373966,159.307795 824.291233,158.354226 823.030686,157.694957 C821.566565,156.963491 819.92511,156.661372 818.296315,156.823569 C815.48085,156.845396 812.831714,158.159559 811.111929,160.387543 C809.390128,162.709088 808.499564,165.5419 808.583444,168.430448 C808.555986,170.71411 808.849481,172.990316 809.455335,175.192413 C810.063089,177.267872 811.031081,179.220432 812.315139,180.960997 C813.41555,182.495402 814.621686,183.951246 815.92477,185.317934 C817.005916,186.4275 818.569508,187.920477 820.615546,189.796864 L835.141258,202.405838 C837.993716,204.925989 840.695429,207.611592 843.232411,210.448743 C845.651514,213.218552 847.830384,216.189082 849.745441,219.328179 C851.830378,222.733591 853.410397,226.423063 854.436217,230.281517 C855.537415,234.423019 856.082766,238.692464 856.057935,242.97763 C856.057935,252.986965 852.80578,261.201243 846.301469,267.620462 C839.797159,274.039682 831.220653,277.275434 820.571952,277.327717 Z" id="Shape" fill="#F9A51A"></path>
                <polygon id="Shape" fill="#F9A51A" points="875.283142 275.506517 875.283142 137.958035 903.087762 137.958035 903.087762 275.506517"></polygon>
                <path d="M965.061809,277.327717 C957.592605,277.327717 951.227797,276.316908 945.967385,274.295289 C941.020035,272.500618 936.667785,269.369534 933.39471,265.250289 C930.175552,261.054471 927.857387,256.239865 926.585237,251.107673 C925.074521,244.832086 924.362659,238.390977 924.466541,231.937153 L924.466541,181.178844 C924.361655,174.742227 925.073561,168.318282 926.585237,162.060607 C927.85134,156.987265 930.171427,152.236956 933.39471,148.11841 C936.699723,144.047671 941.061289,140.963784 946.002261,139.204118 C951.23361,137.211546 957.598417,136.21526 965.096684,136.21526 C979.628209,136.21526 990.073469,139.991272 996.432464,147.543295 C1002.79146,155.095318 1005.95933,166.295549 1005.93608,181.143988 L1005.93608,231.911012 C1005.93608,246.730405 1002.76821,257.997442 996.432464,265.712124 C990.096719,273.426806 979.639834,277.298671 965.061809,277.327717 Z M959.6648,256.135578 C961.367042,256.86905 963.208787,257.222913 965.061809,257.172529 C966.928619,257.219035 968.783748,256.865457 970.502411,256.135578 C971.877039,255.550942 973.097582,254.656196 974.068448,253.521416 C975.016566,252.288641 975.707386,250.878169 976.099955,249.373613 C976.576316,247.764357 976.894607,246.112531 977.050317,244.441561 C977.189819,242.867254 977.25957,240.973439 977.25957,238.760116 L977.25957,174.382023 C977.25957,172.168699 977.189819,170.274884 977.050317,168.700578 C976.899678,167.054587 976.581238,165.428275 976.099955,163.846951 C975.702012,162.381576 975.010921,161.012052 974.068448,159.821142 C973.090259,158.715679 971.869883,157.850876 970.502411,157.294118 C968.776577,156.592418 966.924413,156.254237 965.061809,156.300737 C963.213101,156.25113 961.374531,156.58954 959.6648,157.294118 C958.318532,157.848699 957.123236,158.714788 956.177234,159.821142 C955.255555,161.030415 954.590939,162.415221 954.224197,163.89052 C953.786109,165.478445 953.494262,167.103088 953.352306,168.744147 C953.212803,170.295217 953.143052,172.174509 953.143052,174.382023 L953.143052,238.760116 C953.143052,240.973439 953.212803,242.867254 953.352306,244.441561 C953.493519,246.108493 953.785339,247.759238 954.224197,249.373613 C954.591499,250.872699 955.255579,252.283051 956.177234,253.521416 C957.116641,254.656086 958.311853,255.551977 959.6648,256.135578 L959.6648,256.135578 Z M957.424039,126.098454 L967.721078,92.0010694 L993.877822,92.0010694 L972.873956,126.098454 L957.424039,126.098454 Z" id="Shape" fill="#F9A51A"></path>
                <polygon id="Shape" fill="#F9A51A" points="1026.93123 275.506517 1026.93123 137.958035 1046.43544 137.958035 1077.14346 209.411792 1077.14346 137.958035 1100.38809 137.958035 1100.38809 275.506517 1081.71217 275.506517 1050.83849 199.547688 1050.83849 275.541373"></polygon>
                <polygon id="Shape" fill="#F9A51A" points="350.413188 445.453179 350.413188 307.904697 410.347008 307.904697 410.347008 327.319205 378.400904 327.319205 378.400904 363.73448 403.223655 363.73448 403.223655 383.314552 378.400904 383.314552 378.400904 426.369798 410.660889 426.369798 410.660889 445.453179"></polygon>
                <polygon id="Shape" fill="#F9A51A" points="429.415275 445.453179 429.415275 307.904697 448.919488 307.904697 479.627506 379.358454 479.627506 307.904697 502.872133 307.904697 502.872133 445.453179 484.196217 445.453179 453.32254 369.468208 453.32254 445.453179"></polygon>
                <polygon id="Shape" fill="#F9A51A" points="599.564898 445.453179 573.251213 307.904697 597.568267 307.904697 613.837762 402.014523 629.113301 307.904697 654.5115 307.904697 628.032155 445.453179"></polygon>
                <polygon id="Shape" fill="#F9A51A" points="673.274604 445.453179 673.274604 307.904697 701.087943 307.904697 701.087943 445.453179"></polygon>
                <polygon id="Shape" fill="#F9A51A" points="746.112419 445.453179 719.798734 307.904697 744.115787 307.904697 760.385283 402.014523 775.660821 307.904697 801.05902 307.904697 774.579676 445.453179"></polygon>
                <path d="M856.057935,447.274379 C848.588731,447.274379 842.223924,446.263569 836.963512,444.241951 C832.015947,442.447688 827.663593,439.316529 824.390836,435.196951 C821.171465,431.001264 818.853277,426.186612 817.581364,421.054335 C816.070647,414.778748 815.358786,408.337639 815.462668,401.883815 L815.462668,351.169075 C815.353349,344.714997 816.065286,338.273204 817.581364,331.998555 C818.847467,326.925213 821.167553,322.174904 824.390836,318.056358 C827.69113,314.003944 832.039496,310.932915 836.963512,309.176922 C842.194861,307.18435 848.559668,306.188064 856.057935,306.188064 C870.58946,306.188064 881.03472,309.964075 887.393715,317.516098 C893.75271,325.068121 896.920583,336.268353 896.897332,351.116792 L896.897332,401.883815 C896.897332,416.703208 893.72946,427.970246 887.393715,435.684928 C881.05797,443.39961 870.61271,447.26276 856.057935,447.274379 Z M850.660927,426.108382 C852.363251,426.841585 854.204936,427.195436 856.057935,427.145332 C857.924745,427.191838 859.779874,426.83826 861.498538,426.108382 C862.873323,425.524022 864.093925,424.629233 865.064574,423.49422 C866.012692,422.261445 866.703512,420.850973 867.096081,419.346416 C867.572335,417.737135 867.890624,416.085319 868.046443,414.414364 C868.185946,412.840058 868.255697,410.946243 868.255697,408.732919 L868.255697,344.319971 C868.255697,342.106647 868.185946,340.212832 868.046443,338.638526 C867.895744,336.992544 867.577306,335.366237 867.096081,333.784899 C866.698365,332.319438 866.007253,330.949869 865.064574,329.75909 C864.087661,328.652208 862.866927,327.787151 861.498538,327.232066 C859.772703,326.530366 857.920539,326.192185 856.057935,326.238685 C854.209227,326.189078 852.370657,326.527488 850.660927,327.232066 C849.314495,327.786355 848.119135,328.65249 847.173361,329.75909 C846.252744,330.965776 845.588176,332.347515 845.220324,333.819754 C844.782235,335.407679 844.490389,337.032322 844.348433,338.673382 C844.20893,340.224451 844.139179,342.103743 844.139179,344.311257 L844.139179,408.680636 C844.139179,410.89396 844.20893,412.787775 844.348433,414.362081 C844.48974,416.029 844.781558,417.679738 845.220324,419.294133 C845.587626,420.793219 846.251705,422.203572 847.173361,423.441936 C848.106815,424.595656 849.302517,425.509839 850.660927,426.108382 L850.660927,426.108382 Z" id="Shape" fill="#F9A51A"></path>
            </g>
        </g>
    </g>
</svg>