<?xml version="1.0" encoding="UTF-8" standalone="no"?>
<svg width="1440px" height="576px" viewBox="0 0 1440 576" version="1.1" xmlns="http://www.w3.org/2000/svg" xmlns:xlink="http://www.w3.org/1999/xlink">
    <!-- Generator: Sketch 42 (36781) - http://www.bohemiancoding.com/sketch -->
    <title>hero-content-stream-large</title>
    <desc>Created with Sketch.</desc>
    <defs></defs>
    <g id="Transimision" stroke="none" stroke-width="1" fill="none" fill-rule="evenodd">
        <g id="hero-content-stream-large" fill-rule="nonzero">
            <g id="Group" transform="translate(250.000000, 37.000000)">
                <path d="M896.474461,60.1191095 L909.139314,1.03506957 L917.599096,1.03506957 L930.263949,60.1191095 L921.81835,60.1191095 L918.634408,45.3729128 L908.082728,45.3729128 L904.92006,60.1474676 L896.474461,60.1191095 Z M909.139314,38.992347 L917.599096,38.992347 L913.344386,13.66859 L909.139314,38.992347 Z" id="Shape" fill="#FFFFFF"></path>
                <rect id="Rectangle-path" fill="#E7503D" x="373.953542" y="408.57599" width="193.794943" height="81.7066907"></rect>
                <path d="M423.974748,471.452922 L430.867378,433.488555 L441.674341,433.488555 L448.50315,471.452922 L439.99373,471.452922 L438.802411,463.874228 L433.88113,463.874228 L432.746541,471.452922 L423.974748,471.452922 Z M434.611522,458.514553 L438.022381,458.514553 L436.306315,444.335517 L434.611522,458.514553 Z" id="Shape" fill="#FFFFFF"></path>
                <path d="M471.386398,478.826021 C469.874158,478.144083 468.467594,477.248773 467.209691,476.167452 C465.695083,474.993104 464.376296,473.586091 463.302449,471.998815 L462.933708,471.998815 L462.543693,471.998815 C460.660718,472.04359 458.784307,471.760515 456.998387,471.162252 C455.580311,470.67873 454.322068,469.815577 453.36061,468.666742 C452.43686,467.517522 451.771731,466.18274 451.410535,464.753328 C450.985346,463.011304 450.785163,461.221994 450.814876,459.4291 L450.814876,445.441482 C450.785241,443.648593 450.985423,441.859292 451.410535,440.117254 C451.771731,438.687843 452.43686,437.35306 453.36061,436.203841 C454.322068,435.055006 455.580311,434.191852 456.998387,433.70833 C460.613598,432.593565 464.480878,432.593565 468.096089,433.70833 C469.522813,434.190522 470.790551,435.05346 471.762231,436.203841 C472.692643,437.351756 473.364989,438.686459 473.73358,440.117254 C474.167297,441.857983 474.372303,443.647791 474.343421,445.441482 L474.343421,459.450369 C474.343421,465.036909 472.733723,468.723458 469.514326,470.510017 C470.626951,471.759751 471.943251,472.812064 473.407385,473.622315 L471.386398,478.826021 Z M462.543693,465.589891 C462.97942,465.607887 463.410153,465.491567 463.777558,465.256684 C464.11786,465.02331 464.368082,464.680586 464.486677,464.28542 C464.613175,463.905287 464.701076,463.513387 464.74905,463.11565 C464.790451,462.682095 464.809386,462.246689 464.80578,461.811178 L464.80578,443.094852 C464.809348,442.659342 464.790413,442.223938 464.74905,441.790381 C464.701437,441.397212 464.613517,441.009979 464.486677,440.634789 C464.366649,440.24223 464.116566,439.902197 463.777558,439.670615 C463.410153,439.435732 462.97942,439.319412 462.543693,439.337407 C462.175012,439.326547 461.810157,439.414679 461.487106,439.59263 C461.227122,439.73268 461.003662,439.931804 460.834717,440.173971 C460.666602,440.454923 460.553495,440.765293 460.501432,441.088518 C460.433272,441.405999 460.390589,441.728416 460.373791,442.052693 L460.373791,443.094852 L460.373791,461.846626 L460.373791,462.874606 C460.390242,463.201257 460.432926,463.526057 460.501432,463.84587 C460.553662,464.169052 460.666758,464.479391 460.834717,464.760418 C461.222728,465.316773 461.865623,465.639479 462.543693,465.618249 L462.543693,465.589891 Z" id="Shape" fill="#FFFFFF"></path>
                <path d="M489.788018,472.027173 C487.913776,472.084244 486.042279,471.844979 484.242713,471.318222 C482.869258,470.89163 481.641613,470.091394 480.697121,469.007039 C479.791064,467.919425 479.145858,466.639015 478.810867,465.263773 C478.406247,463.537976 478.218066,461.768536 478.250663,459.996262 L478.250663,433.467287 L487.469201,433.467287 L487.469201,461.527598 C487.465597,461.970547 487.489279,462.413298 487.540113,462.853337 C487.595835,463.262578 487.688396,463.665955 487.816669,464.058555 C487.933218,464.464237 488.183013,464.818862 488.525787,465.065267 C489.298298,465.538003 490.270647,465.538003 491.043157,465.065267 C491.385536,464.81847 491.635224,464.463996 491.752276,464.058555 C491.879886,463.666615 491.967785,463.262848 492.01465,462.853337 C492.055946,462.412666 492.07488,461.970185 492.071379,461.527598 L492.071379,433.467287 L501.346647,433.467287 L501.346647,459.960814 C501.378877,461.733876 501.185873,463.503858 500.772261,465.228326 C500.430787,466.601173 499.78628,467.880195 498.886006,468.971591 C497.944269,470.059106 496.71565,470.859977 495.340414,471.282774 C493.540422,471.821906 491.666491,472.07314 489.788018,472.027173 L489.788018,472.027173 Z" id="Shape" fill="#FFFFFF"></path>
                <path d="M505.551718,471.452922 L505.551718,433.467287 L514.819894,433.467287 L514.819894,471.452922 L505.551718,471.452922 Z M507.473429,430.099766 L510.402087,420.599812 L519.074604,420.599812 L512.962005,430.099766 L507.473429,430.099766 Z" id="Shape" fill="#FFFFFF"></path>
                <path d="M112.636353,60.1191095 L112.636353,1.03506957 L125.726677,1.03506957 C131.905461,1.03506957 136.264175,2.29936688 138.802818,4.82796151 C141.341462,7.35655613 142.610784,11.7189726 142.610784,17.915211 L142.610784,41.1192023 C142.610784,47.6037477 141.320188,52.3891721 138.738998,55.4754754 C136.157807,58.5617788 131.799093,60.1049305 125.662856,60.1049305 L112.636353,60.1191095 Z M121.081952,53.7881703 L125.733768,53.7881703 C126.926566,53.8086331 128.117359,53.6824388 129.279359,53.4124258 C130.203925,53.1894455 131.040926,52.6957557 131.683271,51.9945223 C132.22256,51.4085409 132.69798,50.7668751 133.101507,50.0803525 C133.521433,49.190661 133.762372,48.2271333 133.810625,47.2445455 C133.952449,45.9684323 134.03518,44.9191837 134.058817,44.0967997 C134.082454,43.2744156 134.082454,41.9935761 134.058817,40.2542811 L134.058817,19.9782607 L134.058817,17.4047658 C134.058817,16.7667092 134.025725,16.0128572 133.95954,15.1432097 C133.926224,14.4504808 133.84328,13.7610308 133.711349,13.08016 C133.602617,12.5744411 133.448975,12.0072797 133.250422,11.3786758 C133.110871,10.8483762 132.870079,10.3500543 132.541304,9.91114565 C132.205632,9.5178858 131.843113,9.14834631 131.456353,8.8051809 C131.0269,8.41996535 130.522276,8.12788291 129.974295,7.94734926 C129.332867,7.74167575 128.676023,7.58757903 128.010038,7.48653062 C127.179496,7.35859088 126.340085,7.29695372 125.499759,7.30220316 L121.018131,7.30220316 L121.081952,53.7881703 Z" id="Combined-Shape" fill="#FFFFFF"></path>
                <polygon id="Shape" fill="#FFFFFF" points="162.047717 60.1191095 162.047717 1.03506957 170.493316 1.03506957 170.493316 60.1191095"></polygon>
                <path d="M206.757626,60.714629 C201.434511,60.714629 197.373627,59.1549351 194.574974,56.0355473 C191.77632,52.9161596 190.209169,48.662449 189.873519,43.2744156 L198.319118,41.1475603 C198.735134,49.5888126 201.550334,53.8094388 206.764717,53.8094388 C210.986335,53.8094388 213.097144,51.6991257 213.097144,47.4784996 C213.109069,46.2986963 212.936809,45.1242558 212.586579,43.9975464 C212.246615,42.9322465 211.71558,41.937691 211.019427,41.0624861 C210.432225,40.3092497 209.792419,39.5985211 209.104808,38.9356308 C208.532786,38.3968275 207.752756,37.732776 206.764717,36.9434764 L196.213037,28.4998609 C194.248171,26.9482568 192.662251,24.9699589 191.575403,22.7148145 C190.387411,20.2189443 189.795118,17.4814463 189.845154,14.7178386 C189.845154,10.3648748 191.197207,6.902827 193.901311,4.33169527 C196.605416,1.76056354 200.188827,0.474997681 204.651545,0.474997681 C209.445185,0.474997681 213.255514,1.65658395 216.082532,4.0197565 C218.90955,6.38292904 220.651618,9.6913706 221.308734,13.9450812 C221.374918,14.4177157 221.452921,15.0557723 221.542743,15.8592509 L213.097144,17.9861062 C213.097144,17.612725 213.042778,17.0526531 212.934047,16.3058905 C212.696677,13.9676684 211.823643,11.7390124 210.409586,9.86151902 C209.10008,8.245109 207.180733,7.43690399 204.651545,7.43690399 C202.923697,7.32654441 201.227916,7.94047858 199.971364,9.13129871 C198.811669,10.4240403 198.21681,12.126519 198.319118,13.860007 C198.31279,17.1636319 199.896038,20.2687074 202.573828,22.2043692 L213.125509,30.6479847 C218.751181,35.199455 221.56638,40.6347519 221.571108,46.9538753 C221.571108,51.2832074 220.235602,54.6672704 217.564589,57.1060645 C214.893577,59.5448586 211.291256,60.7477134 206.757626,60.714629 Z" id="Shape" fill="#FFFFFF"></path>
                <polygon id="Shape" fill="#FFFFFF" points="240.171281 60.1191095 240.171281 1.03506957 263.387815 1.03506957 263.387815 7.36600882 248.61688 7.36600882 248.61688 26.3588265 259.168561 26.3588265 259.168561 32.6897658 248.61688 32.6897658 248.61688 60.1191095"></polygon>
                <path d="M280.101733,60.1191095 L280.101733,1.03506957 L290.667596,1.03506957 C296.955112,1.03506957 301.682567,2.25446661 304.849962,4.69326067 C308.017357,7.13205474 309.61051,11.1872588 309.62942,16.8588729 C309.734706,19.9141852 309.092065,22.948978 307.757347,25.6995014 C306.613583,27.9710387 304.641318,29.7169843 302.247498,30.5770895 L311.742592,60.1191095 L303.39627,60.1191095 L294.88685,32.6897658 L288.554424,32.6897658 L288.554424,60.1191095 L280.101733,60.1191095 Z M288.547332,26.3588265 L290.674687,26.3588265 C294.191914,26.3588265 296.829834,25.6167904 298.588448,24.132718 C300.347061,22.6486457 301.226368,20.2263938 301.226368,16.8659624 C301.226368,13.5055311 300.347061,11.0832792 298.588448,9.59920687 C296.829834,8.11513451 294.18955,7.37073516 290.667596,7.36600882 L288.540241,7.36600882 L288.547332,26.3588265 Z" id="Shape" fill="#FFFFFF"></path>
                <path d="M351.495765,59.729186 C347.069365,61.0915459 342.335458,61.0915459 337.909058,59.729186 C336.112184,59.146388 334.464152,58.1786084 333.079962,56.893379 C331.753607,55.5819377 330.70459,54.0172199 329.995298,52.292282 C329.185052,50.376564 328.620369,48.3660985 328.314687,46.3087292 C327.966174,43.9024574 327.800239,41.4732741 327.818304,39.0419736 L327.818304,1.03506957 L336.263904,1.03506957 L336.263904,38.992347 C336.263904,40.8167162 336.301723,42.3433256 336.377362,43.5721754 C336.468277,44.9010329 336.672296,46.2197278 336.987204,47.5139472 C337.230883,48.7048724 337.695051,49.8397745 338.355803,50.8601995 C338.997202,51.7456626 339.84728,52.459171 340.830625,52.9374281 C343.297336,54.0360291 346.114578,54.0360291 348.581289,52.9374281 C349.564634,52.459171 350.414713,51.7456626 351.056112,50.8601995 C351.716271,49.8394657 352.180393,48.7046784 352.42471,47.5139472 C352.738614,46.2195287 352.94262,44.9009195 353.034552,43.5721754 C353.110191,42.3433256 353.148011,40.8167162 353.148011,38.992347 L353.148011,1.03506957 L361.59361,1.03506957 L361.59361,38.992347 C361.611675,41.4236475 361.445741,43.8528308 361.097227,46.2591025 C360.791545,48.3164719 360.226863,50.3269374 359.416616,52.2426554 C358.707153,53.9675019 357.658157,55.5321874 356.331952,56.8437524 C354.950325,58.1475454 353.299474,59.1324991 351.495765,59.729186 Z" id="Shape" fill="#FFFFFF"></path>
                <polygon id="Shape" fill="#FFFFFF" points="389.632148 60.1191095 389.632148 8.55704778 379.080467 8.55704778 379.080467 1.03506957 408.629427 1.03506957 408.629427 8.54995826 398.077747 8.54995826 398.077747 60.1191095"></polygon>
                <polygon id="Shape" fill="#FFFFFF" points="426.286473 60.1191095 426.286473 1.03506957 449.503007 1.03506957 449.503007 7.36600882 434.732072 7.36600882 434.732072 26.3588265 445.283753 26.3588265 445.283753 32.6897658 434.732072 32.6897658 434.732072 53.7881703 449.503007 53.7881703 449.503007 60.1191095"></polygon>
                <path d="M495.418417,60.1191095 L495.418417,1.03506957 L508.508742,1.03506957 C514.687526,1.03506957 519.04624,2.29936688 521.584883,4.82796151 C524.123527,7.35655613 525.392849,11.7189726 525.392849,17.915211 L525.392849,41.1192023 C525.392849,47.6037477 524.102253,52.3891721 521.521063,55.4754754 C518.939872,58.5617788 514.578794,60.1096568 508.43783,60.1191095 L495.418417,60.1191095 Z M503.864017,53.7881703 L508.515833,53.7881703 C509.708631,53.8086331 510.899423,53.6824388 512.061424,53.4124258 C512.98599,53.1894455 513.822991,52.6957557 514.465335,51.9945223 C515.004625,51.4085409 515.480045,50.7668751 515.883572,50.0803525 C516.303498,49.190661 516.544437,48.2271333 516.59269,47.2445455 C516.734514,45.9684323 516.817244,44.9191837 516.840882,44.0967997 C516.864519,43.2744156 516.864519,41.9935761 516.840882,40.2542811 L516.840882,19.9782607 L516.840882,17.4047658 C516.840882,16.7667092 516.80779,16.0128572 516.741605,15.1432097 C516.708288,14.4504808 516.625345,13.7610308 516.493414,13.08016 C516.384682,12.5744411 516.23104,12.0072797 516.032487,11.3786758 C515.892935,10.8483762 515.652144,10.3500543 515.323369,9.91114565 C514.987696,9.5178858 514.625178,9.14834631 514.238417,8.8051809 C513.808965,8.41996535 513.304341,8.12788291 512.75636,7.94734926 C512.114931,7.74167575 511.458088,7.58757903 510.792102,7.48653062 C509.961561,7.35859088 509.12215,7.29695372 508.281824,7.30220316 L503.800196,7.30220316 L503.864017,53.7881703 Z" id="Shape" fill="#FFFFFF"></path>
                <polygon id="Shape" fill="#FFFFFF" points="544.602864 60.1191095 544.602864 1.03506957 567.819397 1.03506957 567.819397 7.36600882 553.027189 7.36600882 553.027189 26.3588265 563.57887 26.3588265 563.57887 32.6897658 553.027189 32.6897658 553.027189 53.7881703 567.798124 53.7881703 567.798124 60.1191095"></polygon>
                <polygon id="Shape" fill="#FFFFFF" points="613.713534 60.1191095 613.713534 1.03506957 620.045961 1.03506957 634.823986 37.5744434 634.823986 1.03506957 643.269586 1.03506957 643.269586 60.1191095 637.270445 60.1191095 622.166225 20.8148238 622.166225 60.1191095"></polygon>
                <path d="M686.469073,59.729186 C682.042673,61.0915459 677.308766,61.0915459 672.882366,59.729186 C671.085492,59.146388 669.43746,58.1786084 668.053271,56.893379 C666.726915,55.5819377 665.677898,54.0172199 664.968606,52.292282 C664.15836,50.376564 663.593677,48.3660985 663.287995,46.3087292 C662.939482,43.9024574 662.773547,41.4732741 662.791613,39.0419736 L662.791613,1.03506957 L671.237212,1.03506957 L671.237212,38.992347 C671.237212,40.8167162 671.275031,42.3433256 671.350671,43.5721754 C671.441586,44.9010329 671.645604,46.2197278 671.960512,47.5139472 C672.204191,48.7048724 672.668359,49.8397745 673.329111,50.8601995 C673.97051,51.7456626 674.820588,52.459171 675.803934,52.9374281 C678.270644,54.0360291 681.087886,54.0360291 683.554597,52.9374281 C684.537942,52.459171 685.388021,51.7456626 686.02942,50.8601995 C686.68958,49.8394657 687.153701,48.7046784 687.398018,47.5139472 C687.711922,46.2195287 687.915928,44.9009195 688.00786,43.5721754 C688.083499,42.3433256 688.121319,40.8167162 688.121319,38.992347 L688.121319,1.03506957 L696.566918,1.03506957 L696.566918,38.992347 C696.584983,41.4236475 696.419049,43.8528308 696.070535,46.2591025 C695.764854,48.3164719 695.200171,50.3269374 694.389925,52.2426554 C693.680461,53.9675019 692.631466,55.5321874 691.30526,56.8437524 C689.923633,58.1475454 688.272782,59.1324991 686.469073,59.729186 L686.469073,59.729186 Z" id="Shape" fill="#FFFFFF"></path>
                <polygon id="Shape" fill="#FFFFFF" points="716.096036 60.1191095 716.096036 1.03506957 739.31257 1.03506957 739.31257 7.36600882 724.541635 7.36600882 724.541635 26.3588265 735.093316 26.3588265 735.093316 32.6897658 724.541635 32.6897658 724.541635 53.7881703 739.31257 53.7881703 739.31257 60.1191095"></polygon>
                <path d="M772.548945,60.714629 C767.22583,60.714629 763.164946,59.1549351 760.366292,56.0355473 C757.567639,52.9161596 756.000487,48.662449 755.664838,43.2744156 L764.110437,41.1475603 C764.526453,49.5888126 767.341653,53.8094388 772.556036,53.8094388 C776.777654,53.8094388 778.888463,51.6991257 778.888463,47.4784996 C778.900388,46.2986963 778.728128,45.1242558 778.377898,43.9975464 C778.037934,42.9322465 777.506899,41.937691 776.810746,41.0624861 C776.223543,40.3092497 775.583737,39.5985211 774.896127,38.9356308 C774.324104,38.3968275 773.544074,37.732776 772.556036,36.9434764 L762.004356,28.4998609 C760.025793,26.9433092 758.429728,24.9547583 757.338357,22.6864564 C756.150365,20.1905862 755.558072,17.4530882 755.608109,14.6894805 C755.608109,10.3365167 756.960161,6.87446893 759.664265,4.3033372 C762.36837,1.73220547 765.951781,0.446639611 770.414499,0.446639611 C775.208139,0.446639611 779.018468,1.62822588 781.845486,3.99139843 C784.672504,6.35457097 786.414572,9.66301253 787.071688,13.9167231 C787.137872,14.3893576 787.215875,15.0274142 787.305697,15.8308929 L778.860098,17.9577482 C778.860098,17.5843669 778.805732,17.024295 778.697001,16.2775325 C778.459631,13.9393103 777.586597,11.7106544 776.17254,9.83316095 C774.863034,8.21675093 772.943688,7.40854592 770.414499,7.40854592 C768.686651,7.29818634 766.99087,7.91212051 765.734318,9.10294064 C764.574623,10.3956822 763.979764,12.0981609 764.082072,13.8316489 C764.075744,17.1352738 765.658992,20.2403494 768.336782,22.1760111 L778.888463,30.6196266 C784.514135,35.171097 787.329334,40.6063938 787.334062,46.9255172 C787.334062,51.2548493 785.998556,54.6389124 783.327543,57.0777064 C780.656531,59.5165005 777.063665,60.728808 772.548945,60.714629 Z" id="Shape" fill="#FFFFFF"></path>
                <polygon id="Shape" fill="#FFFFFF" points="813.358704 60.1191095 813.358704 8.55704778 802.807023 8.55704778 802.807023 1.03506957 832.355983 1.03506957 832.355983 8.54995826 821.804303 8.54995826 821.804303 60.1191095"></polygon>
                <path d="M849.991756,60.1191095 L849.991756,1.03506957 L860.543436,1.03506957 C866.830952,1.03506957 871.558407,2.25446661 874.725803,4.69326067 C877.893198,7.13205474 879.48635,11.1872588 879.50526,16.8588729 C879.607181,19.9123939 878.962129,22.9446437 877.626096,25.6924119 C876.482332,27.9639492 874.510067,29.7098948 872.116247,30.57 L881.611341,60.11202 L873.279201,60.11202 L864.769781,32.6826763 L858.437355,32.6826763 L858.437355,60.1191095 L849.991756,60.1191095 Z M858.437355,26.3588265 L860.56471,26.3588265 C864.081937,26.3588265 866.719857,25.6167904 868.47847,24.132718 C870.237084,22.6486457 871.11639,20.2263938 871.11639,16.8659624 C871.11639,13.5055311 870.237084,11.0832792 868.47847,9.59920687 C866.719857,8.11513451 864.081937,7.37309833 860.56471,7.37309833 L858.437355,7.37309833 L858.437355,26.3588265 Z" id="Shape" fill="#FFFFFF"></path>
                <rect id="Rectangle-path" fill="#F9A51A" x="212.501485" y="384.960807" width="70.5856368" height="5.6716141"></rect>
                <polygon id="Shape" fill="#F9A51A" points="791.312216 261.149471 779.987596 250.125271 768.662977 261.149471 755.352826 248.196923 759.309706 244.134629 768.662977 253.23048 779.987596 242.20628 791.312216 253.23048 802.636835 242.20628 813.968546 253.23048 825.293165 242.20628 836.624876 253.23048 847.949495 242.20628 859.281206 253.23048 870.605825 242.20628 881.937536 253.23048 893.262155 242.20628 904.593866 253.23048 915.925576 242.20628 927.257287 253.23757 936.610558 244.134629 940.567438 248.196923 927.257287 261.149471 915.925576 250.118182 904.593866 261.149471 893.262155 250.125271 881.937536 261.149471 870.605825 250.125271 859.281206 261.149471 847.949495 250.125271 836.624876 261.149471 825.293165 250.125271 813.968546 261.149471 802.636835 250.125271"></polygon>
                <rect id="Rectangle-path" fill="#F9A51A" x="110.196986" y="83.656308" width="83.0873926" height="5.6716141"></rect>
                <rect id="Rectangle-path" fill="#F9A51A" x="71.3940317" y="83.656308" width="18.4796232" height="5.6716141"></rect>
                <rect id="Rectangle-path" fill="#F9A51A" x="42.4123662" y="83.656308" width="9.23981161" height="5.6716141"></rect>
                <rect id="Rectangle-path" fill="#F9A51A" x="0.156006029" y="83.656308" width="9.23981161" height="5.6716141"></rect>
                <polygon id="Shape" fill="#F9A51A" points="128.407144 224.149279 128.407144 129.029221 110.516089 129.029221 110.516089 112.241243 168.770158 112.241243 168.770158 129.029221 151.155659 129.029221 151.155659 224.149279"></polygon>
                <path d="M183.002163,224.149279 L183.002163,112.241243 L211.317257,112.241243 C216.460773,112.177822 221.596794,112.653048 226.641304,113.659147 C230.685275,114.494856 234.534808,116.087227 237.987197,118.352407 C241.327615,120.598345 243.914627,123.797383 245.411665,127.533333 C247.052092,131.446746 247.87467,136.260529 247.879397,141.97468 C247.879397,149.172904 246.855903,155.000487 244.808915,159.457431 C242.761927,163.914374 239.239972,167.288984 234.243052,169.581262 L249.701831,224.170547 L226.478206,224.170547 L213.650256,173.693182 L205.750678,173.693182 L205.750678,224.177637 L183.002163,224.149279 Z M205.750678,159.896981 L211.423625,159.896981 C216.9122,159.896981 220.80526,158.604325 223.102803,156.019014 C225.400347,153.433704 226.549118,149.305241 226.549118,143.633627 C226.549118,138.099077 225.546898,134.060415 223.542457,131.517642 C221.538016,128.974868 217.935695,127.701118 212.735494,127.696392 L205.779043,127.696392 L205.750678,159.896981 Z" id="Shape" fill="#F9A51A"></path>
                <path d="M263.274356,224.149279 L285.150656,112.241243 L310.125803,112.241243 L331.931191,224.149279 L310.799465,224.149279 L306.679488,199.378504 L288.95153,199.378504 L284.831552,224.149279 L263.274356,224.149279 Z M291.085976,185.270364 L304.381944,185.270364 L297.70205,140.726925 L291.085976,185.270364 Z" id="Shape" fill="#F9A51A"></path>
                <polygon id="Shape" fill="#F9A51A" points="346.985772 224.149279 346.985772 112.241243 362.848749 112.241243 387.823896 170.375288 387.823896 112.241243 406.72899 112.241243 406.72899 224.149279 391.539676 224.149279 366.422705 162.349954 366.422705 224.177637"></polygon>
                <path d="M454.771756,225.630988 C444.371354,225.630988 436.606508,222.773912 431.477219,217.059761 C426.34793,211.34561 423.558731,202.561698 423.109623,190.708024 L442.823112,187.163265 C442.912934,194.139351 443.858425,199.392683 445.659586,202.923263 C447.460746,206.453843 450.186124,208.240401 453.83572,208.282938 C456.49255,208.282938 458.416624,207.42747 459.607943,205.716533 C460.871326,203.748554 461.495464,201.438297 461.394921,199.102013 C461.394921,194.692333 460.44943,190.991605 458.558448,187.999828 C456.667465,185.008052 453.594619,181.666526 449.33991,177.975251 L437.320354,167.582018 C434.643981,165.316724 432.171502,162.821103 429.931341,160.123845 C427.87704,157.459571 426.280958,154.471813 425.208613,151.283217 C423.885279,147.453727 423.235107,143.424087 423.286903,139.372827 C423.286903,130.326603 425.965006,123.317433 431.321213,118.345318 C436.67742,113.373203 444.035705,110.863514 453.396066,110.81625 C456.304563,110.788607 459.206116,111.105109 462.040219,111.759156 C464.389698,112.289856 466.651087,113.154091 468.755569,114.325561 C470.61701,115.39949 472.29312,116.766396 473.719397,118.373676 C475.104854,119.895946 476.295834,121.584359 477.264989,123.400144 C478.221899,125.276624 478.991468,127.242837 479.562532,129.270264 C480.15976,131.30549 480.610026,133.380967 480.909857,135.480682 C481.179322,137.437389 481.382602,139.564244 481.519699,141.861248 L461.940942,144.966456 C461.85112,142.669453 461.737661,140.757646 461.600565,139.231037 C461.45462,137.629214 461.196338,136.039615 460.827626,134.47397 C460.558169,133.109765 460.044051,131.805556 459.310113,130.624362 C458.648918,129.674995 457.768321,128.899181 456.743105,128.362806 C455.55232,127.767693 454.217308,127.521892 452.892592,127.653854 C450.602746,127.671613 448.448176,128.740802 447.049457,130.553467 C445.649099,132.442252 444.924794,134.746999 444.993014,137.097092 C444.970682,138.955056 445.209385,140.806954 445.702133,142.598558 C446.196425,144.287129 446.983703,145.875712 448.028041,147.291818 C448.923016,148.540194 449.903979,149.724654 450.963791,150.836577 C451.843097,151.739309 453.114783,152.95398 454.778847,154.480589 L466.592758,164.739121 C468.912691,166.78949 471.110022,168.974469 473.173376,171.282746 C475.140857,173.536235 476.912955,175.953027 478.47049,178.506964 C480.137784,181.286827 481.394113,184.293189 482.200452,187.432667 C483.096068,190.80215 483.539607,194.275727 483.519412,197.762094 C483.519412,205.905587 480.874401,212.588639 475.584378,217.81125 C470.294356,223.033861 463.356815,225.640441 454.771756,225.630988 Z" id="Shape" fill="#F9A51A"></path>
                <polygon id="Shape" fill="#F9A51A" points="498.751274 224.149279 500.573708 112.241243 524.541907 112.241243 538.64627 183.618507 553.502298 112.212885 576.789744 112.212885 578.640543 224.149279 561.940806 224.149279 560.387837 148.624648 545.872185 224.149279 531.966375 224.149279 517.074891 148.220545 515.656654 224.149279"></polygon>
                <polygon id="Shape" fill="#F9A51A" points="596.630874 224.149279 596.630874 112.241243 619.244657 112.241243 619.244657 224.149279"></polygon>
                <path d="M667.379608,225.630988 C656.979206,225.630988 649.214361,222.773912 644.085072,217.059761 C638.955782,211.34561 636.166584,202.561698 635.717476,190.708024 L655.430965,187.163265 C655.520786,194.139351 656.466277,199.392683 658.267438,202.923263 C660.068598,206.453843 662.803431,208.219133 666.471937,208.219133 C669.128767,208.219133 671.052841,207.363664 672.24416,205.652727 C673.507543,203.684749 674.131681,201.374491 674.031138,199.038207 C674.031138,194.628527 673.085647,190.927799 671.194665,187.936023 C669.303682,184.944246 666.230836,181.60272 661.976127,177.911445 L649.956571,167.518212 C647.280198,165.252918 644.807719,162.757298 642.567558,160.06004 C640.513257,157.395765 638.917175,154.408007 637.84483,151.219411 C636.521496,147.389921 635.871324,143.360281 635.92312,139.309021 C635.92312,130.262797 638.601223,123.253627 643.95743,118.281512 C649.313637,113.309397 656.671922,110.799708 666.032283,110.752444 C668.94078,110.724802 671.842333,111.041304 674.676436,111.69535 C677.025915,112.22605 679.287304,113.090285 681.391786,114.261756 C683.253227,115.335685 684.929337,116.70259 686.355614,118.30987 C687.741071,119.83214 688.932051,121.520553 689.901206,123.336338 C690.858116,125.212818 691.627685,127.179031 692.198749,129.206459 C692.795977,131.241685 693.246243,133.317162 693.546074,135.416876 C693.815539,137.373583 694.018819,139.500438 694.155916,141.797442 L674.577159,144.902651 C674.487337,142.605647 674.373878,140.693841 674.236782,139.167231 C674.090837,137.565408 673.832555,135.975809 673.463843,134.410165 C673.194386,133.045959 672.680268,131.74175 671.94633,130.560557 C671.285135,129.611189 670.404538,128.835375 669.379322,128.299001 C668.188537,127.703888 666.853525,127.458087 665.528809,127.590049 C663.238963,127.607807 661.084393,128.676997 659.685674,130.489661 C658.285316,132.378446 657.561011,134.683193 657.629231,137.033286 C657.606899,138.891251 657.845602,140.743148 658.33835,142.534752 C658.832642,144.223324 659.61992,145.811907 660.664258,147.228013 C661.559233,148.476389 662.540196,149.660848 663.600008,150.772771 C664.479314,151.675503 665.751,152.890174 667.415064,154.416783 L679.228975,164.675315 C681.548908,166.725684 683.746239,168.910663 685.809593,171.21894 C687.777074,173.472429 689.549172,175.889221 691.106707,178.443159 C692.802407,181.213767 694.087453,184.215483 694.921763,187.354682 C695.817379,190.724165 696.260918,194.197742 696.240723,197.68411 C696.240723,205.827602 693.595712,212.510654 688.30569,217.733265 C683.015667,222.955877 676.040306,225.588451 667.379608,225.630988 Z" id="Shape" fill="#F9A51A"></path>
                <polygon id="Shape" fill="#F9A51A" points="711.876782 224.149279 711.876782 112.241243 734.490565 112.241243 734.490565 224.149279"></polygon>
                <path d="M784.894695,225.630988 C778.819915,225.630988 773.643351,224.808604 769.365004,223.163836 C765.341273,221.70371 761.801543,219.156292 759.139518,215.804917 C756.521344,212.391242 754.635956,208.474128 753.601304,204.29863 C752.372622,199.192876 751.793658,193.952456 751.878146,188.701691 L751.878146,147.405251 C751.792842,142.168485 752.371842,136.942029 753.601304,131.850849 C754.631038,127.72323 756.517988,123.858427 759.139518,120.507621 C761.827519,117.195709 765.374825,114.68669 769.393369,113.255044 C773.648078,111.633908 778.824642,110.82334 784.92306,110.82334 C796.741698,110.82334 805.236935,113.895464 810.408772,120.039713 C815.580608,126.183961 818.157071,135.296354 818.138161,147.376892 L818.138161,188.680422 C818.138161,200.737329 815.561698,209.904075 810.408772,216.180661 C805.255845,222.457247 796.751153,225.607356 784.894695,225.630988 Z M780.505252,208.389281 C781.889703,208.986027 783.387613,209.273926 784.894695,209.232934 C786.412991,209.270771 787.921786,208.983103 789.319593,208.389281 C790.437592,207.913627 791.430272,207.185671 792.219887,206.262426 C792.991001,205.259453 793.552852,204.111907 793.872133,202.887816 C794.259562,201.578542 794.518432,200.234633 794.645072,198.875149 C794.758531,197.594309 794.81526,196.053521 794.81526,194.252783 L794.81526,141.875427 C794.81526,140.074689 794.758531,138.533901 794.645072,137.253061 C794.522555,135.9139 794.263566,134.590749 793.872133,133.3042 C793.548482,132.111986 792.986411,130.997755 792.219887,130.028843 C791.424316,129.12945 790.431771,128.425855 789.319593,127.972883 C787.915954,127.401986 786.40957,127.126846 784.894695,127.164678 C783.391122,127.124318 781.895794,127.399645 780.505252,127.972883 C779.410319,128.424084 778.438172,129.128725 777.668779,130.028843 C776.919168,131.012695 776.378629,132.139359 776.080354,133.339648 C775.724052,134.631567 775.48669,135.95336 775.371236,137.288509 C775.257777,138.550443 775.201047,140.079416 775.201047,141.875427 L775.201047,194.252783 C775.201047,196.053521 775.257777,197.594309 775.371236,198.875149 C775.486086,200.231347 775.723426,201.574377 776.080354,202.887816 C776.379085,204.107457 776.919187,205.254905 777.668779,206.262426 C778.432808,207.185582 779.404887,207.91447 780.505252,208.389281 L780.505252,208.389281 Z M778.682818,102.59241 L787.057506,74.8511271 L808.331055,74.8511271 L791.248395,102.59241 L778.682818,102.59241 Z" id="Shape" fill="#F9A51A"></path>
                <polygon id="Shape" fill="#F9A51A" points="835.21373 224.149279 835.21373 112.241243 851.076707 112.241243 876.051854 170.375288 876.051854 112.241243 894.956948 112.241243 894.956948 224.149279 879.767634 224.149279 854.657754 162.349954 854.657754 224.177637"></polygon>
                <polygon id="Shape" fill="#F9A51A" points="284.99465 362.416141 284.99465 250.508105 333.739442 250.508105 333.739442 266.303551 307.757347 266.303551 307.757347 295.930645 327.945946 295.930645 327.945946 311.860791 307.757347 311.860791 307.757347 346.890098 333.994725 346.890098 333.994725 362.416141"></polygon>
                <polygon id="Shape" fill="#F9A51A" points="349.24786 362.416141 349.24786 250.508105 365.110836 250.508105 390.085983 308.64215 390.085983 250.508105 408.991078 250.508105 408.991078 362.416141 393.801763 362.416141 368.691884 300.595547 368.691884 362.416141"></polygon>
                <polygon id="Shape" fill="#F9A51A" points="487.632298 362.416141 466.231108 250.508105 486.008417 250.508105 499.240565 327.074896 511.664318 250.508105 532.320934 250.508105 510.785011 362.416141"></polygon>
                <polygon id="Shape" fill="#F9A51A" points="547.581161 362.416141 547.581161 250.508105 570.202035 250.508105 570.202035 362.416141"></polygon>
                <polygon id="Shape" fill="#F9A51A" points="606.820904 362.416141 585.419714 250.508105 605.197023 250.508105 618.429171 327.074896 630.852924 250.508105 651.50954 250.508105 629.973617 362.416141"></polygon>
                <path d="M696.240723,363.89785 C690.165943,363.89785 684.98938,363.075466 680.711032,361.430698 C676.687127,359.970904 673.147313,357.423426 670.485546,354.071779 C667.867198,350.658211 665.981792,346.74106 664.947332,342.565492 C663.718651,337.459738 663.139687,332.219318 663.224175,326.968553 L663.224175,285.70756 C663.135265,280.456589 663.71429,275.215612 664.947332,270.110622 C665.977067,265.983003 667.864017,262.1182 670.485546,258.767393 C673.169709,255.47039 676.70628,252.971833 680.711032,251.543175 C684.965742,249.922039 690.142306,249.11147 696.240723,249.11147 C708.059362,249.11147 716.554599,252.183595 721.726436,258.327843 C726.898272,264.472092 729.474735,273.584485 729.455825,285.665023 L729.455825,326.968553 C729.455825,339.025459 726.879362,348.192206 721.726436,354.468792 C716.573509,360.745378 708.078272,363.888398 696.240723,363.89785 Z M691.851281,346.677412 C693.235799,347.273939 694.73366,347.561829 696.240723,347.521065 C697.759019,347.558902 699.267815,347.271234 700.665622,346.677412 C701.783749,346.201983 702.776477,345.473992 703.565916,344.550557 C704.33703,343.547584 704.898881,342.400038 705.218161,341.175946 C705.605503,339.866651 705.864371,338.522751 705.9911,337.163279 C706.104559,335.88244 706.161289,334.341651 706.161289,332.540914 L706.161289,280.1352 C706.161289,278.334462 706.104559,276.793674 705.9911,275.512834 C705.868535,274.17368 705.609546,272.850534 705.218161,271.563973 C704.894695,270.371689 704.332606,269.257422 703.565916,268.288616 C702.771382,267.388068 701.778546,266.684267 700.665622,266.232656 C699.261983,265.661759 697.755599,265.386619 696.240723,265.424451 C694.73715,265.38409 693.241822,265.659417 691.851281,266.232656 C690.756214,266.683619 689.784016,267.388297 689.014808,268.288616 C688.266061,269.270363 687.72556,270.394532 687.426383,271.592331 C687.070081,272.88425 686.832719,274.206043 686.717265,275.541192 C686.603806,276.803126 686.547076,278.332099 686.547076,280.12811 L686.547076,332.498377 C686.547076,334.299114 686.603806,335.839903 686.717265,337.120742 C686.832191,338.476931 687.06953,339.819954 687.426383,341.133409 C687.725113,342.35305 688.265216,343.500499 689.014808,344.50802 C689.773996,345.446674 690.746472,346.190444 691.851281,346.677412 L691.851281,346.677412 Z" id="Shape" fill="#F9A51A"></path>
            </g>
        </g>
    </g>
</svg>