<?xml version="1.0" encoding="UTF-8" standalone="no"?>
<svg width="97px" height="85px" viewBox="0 0 97 85" version="1.1" xmlns="http://www.w3.org/2000/svg" xmlns:xlink="http://www.w3.org/1999/xlink">
    <!-- Generator: Sketch 40 (33762) - http://www.bohemiancoding.com/sketch -->
    <title>logo-eco-topbar</title>
    <desc>Created with Sketch.</desc>
    <defs>
        <polygon id="path-1" points="0.412825525 8.44772144 5.52127067 8.44772144 5.52127067 0.201548554 0.412825525 0.201548554"></polygon>
        <polygon id="path-3" points="0.558701256 8.44772144 5.6671464 8.44772144 5.6671464 0.201548554 0.558701256 0.201548554 0.558701256 8.44772144"></polygon>
        <polygon id="path-5" points="0.106148757 8.44772144 5.2145939 8.44772144 5.2145939 0.201548554 0.106148757 0.201548554 0.106148757 8.44772144"></polygon>
        <polygon id="path-7" points="10.1281732 0.33086909 0.0590791852 0.33086909 0.0590791852 8.6907373 10.1281732 8.6907373 10.1281732 0.33086909"></polygon>
        <polygon id="path-9" points="1.30193852 8.76943884 1.30193852 0.314677624 0.063531805 0.314677624 0.063531805 8.76943884 1.30193852 8.76943884"></polygon>
    </defs>
    <g id="Home" stroke="none" stroke-width="1" fill="none" fill-rule="evenodd">
        <g id="Home-Desktop-HD" transform="translate(-23.000000, -16.000000)">
            <g id="logo-eco-topbar" transform="translate(23.000000, 16.000000)">
                <path d="M3.1659505,71.6663153 L2.50364114,69.8944057 L1.84063315,71.6663153 L3.1659505,71.6663153 Z M3.501297,72.5730374 L1.5136703,72.5730374 L1.11265177,73.64449 C1.03929472,73.8254121 0.867429635,73.9331205 0.687180887,73.9331205 C0.629892525,73.9331205 0.580987826,73.9253768 0.532083127,73.9084813 C0.294546017,73.8176683 0.180667931,73.553677 0.261710004,73.3143249 L2.0697866,68.459701 C2.14314365,68.278779 2.32339239,68.1640307 2.50364114,68.1717745 C2.69087628,68.1640307 2.86344,68.278779 2.93679705,68.459701 L4.744175,73.3143249 C4.82661435,73.553677 4.71203763,73.8176683 4.47450052,73.9084813 C4.43397948,73.9253768 4.37599248,73.9331205 4.31870412,73.9331205 C4.13915401,73.9331205 3.96728892,73.8254121 3.90231554,73.64449 L3.501297,72.5730374 Z" id="Fill-1" fill="#0E9493"></path>
                <path d="M5.06457065,70.965788 C5.07295431,69.3332658 6.43040903,68.0062696 8.06662054,67.9985258 C8.78621825,67.9985258 9.44084258,68.2378779 9.9557392,68.6412566 C10.1527553,68.8059872 10.1848926,69.0946177 10.0374799,69.3008829 C9.87399849,69.5071481 9.57148799,69.540235 9.38355422,69.3916959 C9.02375536,69.0946177 8.57383213,68.9383348 8.06662054,68.9383348 C7.50212058,68.9383348 6.9788403,69.1692392 6.59458909,69.5317872 C6.22640657,69.9105268 5.99725312,70.4054224 5.99725312,70.965788 C5.99725312,71.5261535 6.22640657,72.0372406 6.59458909,72.3997887 C6.9788403,72.7623367 7.50212058,72.9932411 8.06662054,72.9932411 C8.57383213,72.9932411 9.0153717,72.8369583 9.38355422,72.5398801 C9.57148799,72.3997887 9.87399849,72.4328756 10.0374799,72.6306931 C10.1848926,72.8369583 10.1527553,73.1333325 9.9557392,73.2903193 C9.44084258,73.693698 8.78621825,73.9330501 8.06662054,73.9330501 C6.43040903,73.9330501 5.07295431,72.6060539 5.06457065,70.965788" id="Fill-3" fill="#0E9493"></path>
                <path d="M15.6504818,70.965788 C15.6504818,70.4054224 15.429712,69.8858876 15.0943655,69.5240435 C14.7506354,69.1523438 14.2930271,68.9383348 13.8018842,68.9383348 C13.2786039,68.9383348 12.820297,69.1523438 12.4765669,69.5240435 C12.1328367,69.8858876 11.9204506,70.4054224 11.9204506,70.965788 C11.9204506,71.5261535 12.1328367,72.0456884 12.4765669,72.3997887 C12.820297,72.7707844 13.2786039,72.9932411 13.8018842,72.9932411 C14.2930271,72.9932411 14.7506354,72.7707844 15.0943655,72.3997887 C15.429712,72.0456884 15.6504818,71.5261535 15.6504818,70.965788 M15.7566749,68.8806087 C16.2638865,69.4240788 16.5824657,70.1498789 16.5824657,70.965788 C16.5824657,71.7816971 16.2638865,72.5152409 15.7566749,73.0509672 C15.2739156,73.5866935 14.5543179,73.9330501 13.8018842,73.9330501 C13.0166145,73.9330501 12.2970167,73.5866935 11.7981888,73.0509672 C11.2902786,72.5152409 10.9877681,71.7816971 10.9877681,70.965788 C10.9877681,70.1498789 11.2902786,69.4240788 11.7981888,68.8806087 C12.2970167,68.3364347 13.0166145,67.9985258 13.8018842,67.9985258 C14.5543179,67.9985258 15.2739156,68.3364347 15.7566749,68.8806087" id="Fill-5" fill="#0E9493"></path>
                <path d="M22.5719639,68.616899 L22.5719639,73.4792667 C22.5719639,73.7270665 22.3595778,73.9326277 22.113657,73.9326277 C21.8607498,73.9326277 21.6637338,73.7270665 21.6637338,73.4792667 L21.6637338,70.0100691 L20.4865278,71.6580787 C20.3964034,71.7819787 20.2650594,71.8474485 20.1176466,71.8474485 L20.1099616,71.8474485 L20.101578,71.8474485 C19.9541652,71.8474485 19.8151361,71.7819787 19.7257104,71.6580787 L18.5554908,70.0100691 L18.5554908,73.4792667 C18.5554908,73.7270665 18.3514884,73.9326277 18.0978826,73.9326277 C17.8519618,73.9326277 17.6479593,73.7270665 17.6479593,73.4792667 L17.6479593,68.616899 C17.6479593,68.3690992 17.8519618,68.163538 18.0978826,68.163538 L18.1223349,68.163538 C18.2529803,68.163538 18.4003931,68.2290078 18.4821338,68.3529077 L20.1099616,70.6281607 L21.7377895,68.3529077 C21.8279138,68.2290078 21.9585592,68.163538 22.105972,68.163538 L22.113657,68.163538 C22.3595778,68.1719857 22.5719639,68.3690992 22.5719639,68.616899" id="Fill-7" fill="#0E9493"></path>
                <path d="M24.8310117,70.7759958 L25.8370512,70.7759958 C26.3114268,70.7759958 26.6796093,70.3972563 26.687993,69.9354475 C26.6796093,69.4574473 26.3114268,69.0780038 25.8370512,69.0780038 L24.8310117,69.0780038 L24.8310117,70.7759958 Z M25.8370512,71.6911656 L24.8310117,71.6911656 L24.8310117,73.4799707 C24.8310117,73.7270665 24.6263106,73.9326277 24.3734034,73.9326277 C24.1274827,73.9326277 23.9227816,73.7270665 23.9227816,73.4799707 L23.9227816,68.616899 C23.9227816,68.3613554 24.1274827,68.163538 24.3734034,68.163538 L24.3810884,68.163538 L25.8370512,68.163538 C26.8102547,68.163538 27.5955245,68.9548079 27.5955245,69.9354475 C27.5955245,70.8998957 26.8102547,71.6911656 25.8370512,71.6911656 L25.8370512,71.6911656 Z" id="Fill-9" fill="#0E9493"></path>
                <path d="M30.4840456,71.6663153 L29.8217362,69.8944057 L29.1587282,71.6663153 L30.4840456,71.6663153 Z M30.8193921,72.5730374 L28.8317654,72.5730374 L28.4307469,73.64449 C28.3573898,73.8254121 28.1855247,73.9331205 28.005276,73.9331205 C27.9479876,73.9331205 27.8990829,73.9253768 27.8501782,73.9084813 C27.6126411,73.8176683 27.498763,73.553677 27.5798051,73.3143249 L29.3878817,68.459701 C29.4619374,68.278779 29.6414875,68.1640307 29.8217362,68.1717745 C30.00967,68.1640307 30.1815351,68.278779 30.2548921,68.459701 L32.0622701,73.3143249 C32.1447094,73.553677 32.0301327,73.8176683 31.7925956,73.9084813 C31.7520746,73.9253768 31.6947862,73.9331205 31.6374978,73.9331205 C31.4572491,73.9331205 31.285384,73.8254121 31.219712,73.64449 L30.8193921,72.5730374 Z" id="Fill-11" fill="#0E9493"></path>
                <path d="M33.945101,67.4789909 C33.7816196,67.4789909 33.6425905,67.3473473 33.6425905,67.2072559 C33.6425905,67.1579775 33.6586592,67.0756122 33.6754265,67.0178861 C33.8472916,66.5405899 34.0764451,66.2681509 34.509601,66.2681509 C34.9595242,66.2681509 35.3926801,66.597612 35.6875056,66.597612 C35.8754394,66.597612 35.9655637,66.5145427 36.0640718,66.3336207 C36.1206615,66.2435117 36.2107859,66.1688901 36.3337462,66.1688901 C36.4972277,66.1688901 36.6362567,66.3005338 36.6362567,66.4406252 C36.6362567,66.4906075 36.6201881,66.5729728 36.6034207,66.6299949 C36.4315556,67.1086991 36.2031008,67.3804342 35.7692463,67.3804342 C35.3193231,67.3804342 34.8854685,67.0509731 34.5913417,67.0509731 C34.4034079,67.0509731 34.3132835,67.1326344 34.2147755,67.3142604 C34.1574871,67.4050734 34.0764451,67.4789909 33.945101,67.4789909 L33.945101,67.4789909 Z M33.8633603,73.4796891 C33.8633603,73.7267849 33.6586592,73.9330501 33.4218207,73.9330501 C33.1675163,73.9330501 32.9718975,73.7267849 32.9718975,73.4796891 L32.9718975,68.691239 L32.9718975,68.6827912 C32.9635138,68.5426999 33.0291859,68.3941608 33.1521462,68.3033478 C33.3561487,68.1639604 33.6342069,68.204791 33.7732359,68.4026085 L36.415487,72.086519 L36.415487,68.691239 C36.415487,68.4518869 36.6118044,68.2463256 36.8570265,68.2463256 C37.1022487,68.2463256 37.3069498,68.4518869 37.3069498,68.691239 L37.3069498,73.4796891 C37.3069498,73.7267849 37.1022487,73.9330501 36.8570265,73.9330501 C36.7263811,73.9330501 36.6034207,73.8668763 36.52168,73.7676156 C36.5049127,73.7514241 36.488844,73.7352326 36.481159,73.7190412 L33.8633603,70.0590659 L33.8633603,73.4796891 Z" id="Fill-13" fill="#0E9493"></path>
                <path d="M41.7908819,71.6663153 L41.1285725,69.8944057 L40.4655645,71.6663153 L41.7908819,71.6663153 Z M42.1262284,72.5730374 L40.1386017,72.5730374 L39.7375832,73.64449 C39.6642261,73.8254121 39.492361,73.9331205 39.3121123,73.9331205 C39.2548239,73.9331205 39.2059192,73.9253768 39.1570145,73.9084813 C38.9194774,73.8176683 38.8055993,73.553677 38.8866414,73.3143249 L40.694718,68.459701 C40.7687737,68.278779 40.9483238,68.1640307 41.1285725,68.1717745 C41.3165063,68.1640307 41.4883714,68.278779 41.5617284,68.459701 L43.3691064,73.3143249 C43.4515458,73.553677 43.336969,73.8176683 43.0994319,73.9084813 C43.0589109,73.9253768 43.0016225,73.9331205 42.9443342,73.9331205 C42.7640854,73.9331205 42.5922203,73.8254121 42.5265483,73.64449 L42.1262284,72.5730374 Z" id="Fill-15" fill="#0E9493"></path>
                <path d="M49.1944944,68.616899 L49.1944944,73.4792667 C49.1944944,73.7270665 48.9821083,73.9326277 48.7361875,73.9326277 C48.4832804,73.9326277 48.2862643,73.7270665 48.2862643,73.4792667 L48.2862643,70.0100691 L47.1090583,71.6580787 C47.018934,71.7819787 46.8875899,71.8474485 46.7408758,71.8474485 L46.7324922,71.8474485 L46.7241085,71.8474485 C46.5766958,71.8474485 46.4376667,71.7819787 46.3482409,71.6580787 L45.1780214,70.0100691 L45.1780214,73.4792667 C45.1780214,73.7270665 44.9740189,73.9326277 44.7204131,73.9326277 C44.4744923,73.9326277 44.2704899,73.7270665 44.2704899,73.4792667 L44.2704899,68.616899 C44.2704899,68.3690992 44.4744923,68.163538 44.7204131,68.163538 L44.7448655,68.163538 C44.8755109,68.163538 45.0229236,68.2290078 45.1046643,68.3529077 L46.7324922,70.6281607 L48.36032,68.3529077 C48.4504444,68.2290078 48.5810898,68.163538 48.7285025,68.163538 L48.7361875,68.163538 C48.9821083,68.1719857 49.1944944,68.3690992 49.1944944,68.616899" id="Fill-17" fill="#0E9493"></path>
                <path d="M51.0120725,68.616899 C51.0120725,68.3613554 51.20839,68.163538 51.4619957,68.163538 C51.7072179,68.163538 51.919604,68.3613554 51.919604,68.616899 L51.919604,73.4792667 C51.919604,73.7348103 51.7072179,73.9326277 51.4619957,73.9326277 C51.20839,73.9326277 51.0120725,73.7348103 51.0120725,73.4792667 L51.0120725,68.616899 Z" id="Fill-19" fill="#0E9493"></path>
                <path d="M53.2290623,73.4796187 L53.2290623,68.617251 C53.2290623,68.3610035 53.4253797,68.16389 53.6789855,68.16389 L53.6866705,68.16389 L53.7034378,68.16389 L56.3533739,68.16389 C56.590911,68.16389 56.8032971,68.3610035 56.8032971,68.617251 C56.8032971,68.8720906 56.590911,69.0783558 56.3533739,69.0783558 L54.1372924,69.0783558 L54.1372924,70.5862741 L56.0431784,70.5862741 C56.2884005,70.5862741 56.492403,70.800987 56.492403,71.0396351 C56.492403,71.2951787 56.2884005,71.5014439 56.0431784,71.5014439 L54.1372924,71.5014439 L54.1372924,73.0178099 L56.3533739,73.0178099 C56.590911,73.0178099 56.8032971,73.2240751 56.8032971,73.4796187 C56.8032971,73.7267145 56.590911,73.9329797 56.3533739,73.9329797 L53.7034378,73.9329797 C53.6866705,73.9329797 53.6866705,73.925236 53.6866705,73.925236 L53.6789855,73.9329797 C53.4253797,73.9329797 53.2290623,73.7267145 53.2290623,73.4796187" id="Fill-21" fill="#0E9493"></path>
                <path d="M58.7594152,73.4796187 C58.7594152,73.7267145 58.5547141,73.9329797 58.3178757,73.9329797 C58.0635712,73.9329797 57.8679524,73.7267145 57.8679524,73.4796187 L57.8679524,68.6911686 L57.8679524,68.6827208 C57.8595688,68.5426295 57.9245422,68.3940904 58.0482012,68.3032774 C58.2522036,68.16389 58.5302618,68.2047206 58.6692909,68.4025381 L61.3115419,72.0864486 L61.3115419,68.6911686 C61.3115419,68.4518165 61.5078593,68.2462552 61.7530815,68.2462552 C61.9983036,68.2462552 62.2030047,68.4518165 62.2030047,68.6911686 L62.2030047,73.4796187 C62.2030047,73.7267145 61.9983036,73.9329797 61.7530815,73.9329797 C61.622436,73.9329797 61.4994757,73.8668059 61.4177349,73.7682492 C61.4009676,73.7513537 61.3848989,73.7351622 61.3772139,73.7189708 L58.7594152,70.0589955 L58.7594152,73.4796187 Z" id="Fill-23" fill="#0E9493"></path>
                <path d="M67.3657341,69.078215 L66.0655677,69.078215 L66.0655677,73.4794779 C66.0655677,73.7350215 65.8692503,73.9328389 65.6149458,73.9328389 C65.3704223,73.9328389 65.1657212,73.7350215 65.1657212,73.4794779 L65.1657212,69.078215 L63.8732399,69.078215 C63.6196341,69.078215 63.4233167,68.8642061 63.4233167,68.6171102 C63.4233167,68.3615666 63.6196341,68.1637492 63.8732399,68.1637492 L67.3657341,68.1637492 C67.6109562,68.1637492 67.8156573,68.3615666 67.8156573,68.6171102 C67.8156573,68.8642061 67.6109562,69.078215 67.3657341,69.078215" id="Fill-25" fill="#0E9493"></path>
                <path d="M72.9047501,70.965788 C72.9047501,70.4054224 72.6839804,69.8858876 72.3479352,69.5240435 C72.0049037,69.1523438 71.5465968,68.9383348 71.0561525,68.9383348 C70.5321736,68.9383348 70.0745653,69.1523438 69.7308352,69.5240435 C69.387105,69.8858876 69.1747189,70.4054224 69.1747189,70.965788 C69.1747189,71.5261535 69.387105,72.0456884 69.7308352,72.3997887 C70.0745653,72.7707844 70.5321736,72.9932411 71.0561525,72.9932411 C71.5465968,72.9932411 72.0049037,72.7707844 72.3479352,72.3997887 C72.6839804,72.0456884 72.9047501,71.5261535 72.9047501,70.965788 M73.0109432,68.8806087 C73.5181548,69.4240788 73.836734,70.1498789 73.836734,70.965788 C73.836734,71.7816971 73.5181548,72.5152409 73.0109432,73.0509672 C72.528184,73.5866935 71.8085862,73.9330501 71.0561525,73.9330501 C70.2708828,73.9330501 69.5505864,73.5866935 69.0517585,73.0509672 C68.5445469,72.5152409 68.2420364,71.7816971 68.2420364,70.965788 C68.2420364,70.1498789 68.5445469,69.4240788 69.0517585,68.8806087 C69.5505864,68.3364347 70.2708828,67.9985258 71.0561525,67.9985258 C71.8085862,67.9985258 72.528184,68.3364347 73.0109432,68.8806087" id="Fill-27" fill="#0E9493"></path>
                <g id="Group-31" transform="translate(0.000000, 76.402601)">
                    <mask id="mask-2" fill="white">
                        <use xlink:href="#path-1"></use>
                    </mask>
                    <g id="Clip-30"></g>
                    <path d="M0.412825525,7.79957002 L0.412825525,0.849911175 C0.412825525,0.484547222 0.693678226,0.201548554 1.05627164,0.201548554 L1.06744986,0.201548554 L1.09050493,0.201548554 L4.8785232,0.201548554 C5.2173629,0.201548554 5.52127067,0.484547222 5.52127067,0.849911175 C5.52127067,1.21527513 5.2173629,1.50953742 4.8785232,1.50953742 L1.71089597,1.50953742 L1.71089597,3.66511435 L4.43418907,3.66511435 C4.78490563,3.66511435 5.07693655,3.97134425 5.07693655,4.31277299 C5.07693655,4.67813694 4.78490563,4.97239924 4.43418907,4.97239924 L1.71089597,4.97239924 L1.71089597,7.13994377 L4.8785232,7.13994377 C5.2173629,7.13994377 5.52127067,7.43491004 5.52127067,7.79957002 C5.52127067,8.15296636 5.2173629,8.44793264 4.8785232,8.44793264 L1.09050493,8.44793264 C1.06744986,8.44793264 1.06744986,8.43596503 1.06744986,8.43596503 L1.05627164,8.44793264 C0.693678226,8.44793264 0.412825525,8.15296636 0.412825525,7.79957002" id="Fill-29" fill="#0E9493" mask="url(#mask-2)"></path>
                </g>
                <path d="M14.1703462,77.2527231 L14.1703462,84.2023819 C14.1703462,84.5557782 13.8664384,84.8500405 13.5157218,84.8500405 C13.1531284,84.8500405 12.8729744,84.5557782 12.8729744,84.2023819 L12.8729744,79.2428654 L11.1892554,81.5990757 C11.0607059,81.7757739 10.8741695,81.8701068 10.6638792,81.8701068 L10.6520024,81.8701068 L10.6401255,81.8701068 C10.4298353,81.8701068 10.231422,81.7757739 10.1021738,81.5990757 L8.43103041,79.2428654 L8.43103041,84.2023819 C8.43103041,84.5557782 8.13830085,84.8500405 7.77640608,84.8500405 C7.42568952,84.8500405 7.13295996,84.5557782 7.13295996,84.2023819 L7.13295996,77.2527231 C7.13295996,76.8993267 7.42568952,76.6043604 7.77640608,76.6043604 L7.81133801,76.6043604 C7.99857314,76.6043604 8.20886335,76.6986933 8.32553599,76.8760955 L10.6520024,80.1263563 L12.9784688,76.8760955 C13.1070183,76.6986933 13.2935548,76.6043604 13.503845,76.6043604 L13.5157218,76.6043604 C13.8664384,76.616328 14.1703462,76.8993267 14.1703462,77.2527231" id="Fill-32" fill="#0E9493"></path>
                <path d="M17.5007562,80.3390981 L18.9385543,80.3390981 C19.6162337,80.3390981 20.1423086,79.797036 20.1541854,79.1374097 C20.1423086,78.4545522 19.6162337,77.9124901 18.9385543,77.9124901 L17.5007562,77.9124901 L17.5007562,80.3390981 Z M18.9385543,81.646383 L17.5007562,81.646383 L17.5007562,84.2025227 C17.5007562,84.555919 17.2087253,84.8501813 16.8461319,84.8501813 C16.4954153,84.8501813 16.2033844,84.555919 16.2033844,84.2025227 L16.2033844,77.2528639 C16.2033844,76.8874999 16.4954153,76.6045012 16.8461319,76.6045012 L16.8580087,76.6045012 L18.9385543,76.6045012 C20.3295437,76.6045012 21.4522559,77.7357919 21.4522559,79.1374097 C21.4522559,80.5150923 20.3295437,81.646383 18.9385543,81.646383 L18.9385543,81.646383 Z" id="Fill-34" fill="#0E9493"></path>
                <path d="M26.5824986,79.1372689 C26.5824986,78.4544114 26.0445469,77.9123493 25.3780457,77.9123493 L23.9409462,77.9123493 L23.9409462,80.3389573 L25.3780457,80.3389573 C26.0445469,80.3389573 26.5824986,79.7968952 26.5824986,79.1372689 M28.2187101,83.8729208 C28.3353827,84.2143495 28.1488462,84.5790095 27.8100065,84.6972776 C27.7631977,84.7092452 27.6695801,84.7324764 27.5529075,84.7324764 L27.5410307,84.7324764 C27.424358,84.7324764 27.2489997,84.7092452 27.0848197,84.6029447 C26.9332151,84.5086118 26.8046656,84.3551449 26.711048,84.1904143 C26.5475666,83.8489856 26.4658259,83.4244875 26.4658259,82.7768289 C26.4539491,82.5529643 26.4071403,82.4002013 26.3253996,82.2706696 C26.2548371,82.1404339 26.1144107,82.0228698 25.974683,81.9292409 C25.7287622,81.7638063 25.4248545,81.6701774 25.3200587,81.6462422 L23.9409462,81.6462422 L23.9409462,84.2023819 C23.9409462,84.5557782 23.6482166,84.8500405 23.2863218,84.8500405 C22.9237284,84.8500405 22.6428757,84.5557782 22.6428757,84.2023819 L22.6428757,77.2527231 C22.6428757,76.8873591 22.9237284,76.6043604 23.2863218,76.6043604 L23.2975,76.6043604 L25.3780457,76.6043604 C26.7697337,76.6043604 27.8798704,77.7356511 27.8798704,79.1372689 C27.8798704,79.9144593 27.5291538,80.5980207 26.968147,81.0689812 C27.1197516,81.1865453 27.260178,81.3280447 27.3775492,81.5047429 C27.6108945,81.8468756 27.7631977,82.2826372 27.7631977,82.7768289 C27.7513209,83.1302253 27.7862528,83.3540899 27.8100065,83.471654 C27.9972416,83.530788 28.1488462,83.6722874 28.2187101,83.8729208" id="Fill-36" fill="#0E9493"></path>
                <g id="Group-40" transform="translate(29.342819, 76.402601)">
                    <mask id="mask-4" fill="white">
                        <use xlink:href="#path-3"></use>
                    </mask>
                    <g id="Clip-39"></g>
                    <path d="M0.558701256,7.79957002 L0.558701256,0.849911175 C0.558701256,0.484547222 0.838855318,0.201548554 1.20144873,0.201548554 L1.21332559,0.201548554 L1.23638066,0.201548554 L5.02439893,0.201548554 C5.36253999,0.201548554 5.6671464,0.484547222 5.6671464,0.849911175 C5.6671464,1.21527513 5.36253999,1.50953742 5.02439893,1.50953742 L1.85607306,1.50953742 L1.85607306,3.66511435 L4.5800648,3.66511435 C4.93008272,3.66511435 5.22281228,3.97134425 5.22281228,4.31277299 C5.22281228,4.67813694 4.93008272,4.97239924 4.5800648,4.97239924 L1.85607306,4.97239924 L1.85607306,7.13994377 L5.02439893,7.13994377 C5.36253999,7.13994377 5.6671464,7.43491004 5.6671464,7.79957002 C5.6671464,8.15296636 5.36253999,8.44793264 5.02439893,8.44793264 L1.23638066,8.44793264 C1.21332559,8.44793264 1.21332559,8.43596503 1.21332559,8.43596503 L1.20144873,8.44793264 C0.838855318,8.44793264 0.558701256,8.15296636 0.558701256,7.79957002" id="Fill-38" fill="#0E9493" mask="url(#mask-4)"></path>
                </g>
                <path d="M36.3645562,82.8008345 C36.5748464,82.5410671 36.9604949,82.5058682 37.2175939,82.7184692 C37.7317919,83.1415593 38.6204601,83.636455 39.4504427,83.6251913 C40.0352032,83.6251913 40.5605794,83.4484932 40.911296,83.1894297 C41.2627111,82.9303662 41.4143157,82.6354 41.4143157,82.3418416 C41.4143157,82.1876707 41.3793838,82.0820742 41.3088213,81.9645101 C41.2389574,81.846946 41.133463,81.7286779 40.9588034,81.6104098 C40.619265,81.3872491 40.0463814,81.1866157 39.3568252,81.057084 L39.3337701,81.057084 C38.7846402,80.9514875 38.2697436,80.8099882 37.8254094,80.5980911 C37.3817739,80.3861941 36.9954268,80.0912279 36.7383278,79.6794014 C36.5629696,79.3964028 36.469352,79.0662377 36.469352,78.7135453 C36.469352,78.0060486 36.8668773,77.3935888 37.404829,76.993026 C37.9539589,76.5931672 38.6672689,76.3693026 39.4273877,76.3693026 C40.5494012,76.3693026 41.3793838,76.9226283 41.9753225,77.3119275 C42.2442983,77.4998893 42.326039,77.8772209 42.1388039,78.147548 C41.9641443,78.4305466 41.589674,78.5129119 41.3088213,78.3242461 C40.7128826,77.9236833 40.139999,77.570287 39.4273877,77.570287 C38.9013128,77.570287 38.433225,77.7357215 38.1174404,77.9708498 C37.8016557,78.206682 37.6738049,78.4657455 37.6738049,78.7135453 C37.6738049,78.8543406 37.6968599,78.9486735 37.7555456,79.0430064 C37.8142312,79.1373393 37.919027,79.2429358 38.0713302,79.3492363 C38.375238,79.5611333 38.9013128,79.7497991 39.5321834,79.8673632 L39.5552385,79.8673632 C40.1518758,79.9856313 40.7010057,80.1383943 41.1683949,80.3622589 C41.6483596,80.5980911 42.06894,80.904321 42.3379159,81.3400827 C42.5132742,81.6223774 42.6187686,81.9757737 42.6187686,82.3418416 C42.6187686,83.0950968 42.1974895,83.7427555 41.6134277,84.1672535 C41.0405441,84.5903435 40.2804253,84.8388473 39.4504427,84.8388473 C38.1880028,84.8268797 37.1239763,84.1904847 36.4581738,83.6603902 C36.2003761,83.4484932 36.1654442,83.059194 36.3645562,82.8008345" id="Fill-41" fill="#0E9493"></path>
                <path d="M47.7257466,81.6104098 L46.7790913,79.0782053 L45.8317375,81.6104098 L47.7257466,81.6104098 Z M48.2050126,82.906431 L45.3643483,82.906431 L44.7914646,84.4382845 C44.6866689,84.697348 44.4407481,84.8501109 44.1836491,84.8501109 C44.1019084,84.8501109 44.0320445,84.8388473 43.961482,84.8149121 C43.6226423,84.6853804 43.4591609,84.3080488 43.5758336,83.9666201 L46.1593989,77.0289288 C46.2648934,76.7698654 46.5219924,76.6044308 46.7790913,76.6163984 C47.0480672,76.6044308 47.2932893,76.7698654 47.3980851,77.0289288 L49.9816505,83.9666201 C50.0990218,84.3080488 49.9348417,84.6853804 49.596002,84.8149121 C49.5373164,84.8388473 49.4555757,84.8501109 49.3745336,84.8501109 C49.116736,84.8501109 48.8715138,84.697348 48.7778963,84.4382845 L48.2050126,82.906431 Z" id="Fill-43" fill="#0E9493"></path>
                <path d="M55.1473142,79.1372689 C55.1473142,78.4544114 54.6100611,77.9123493 53.9435599,77.9123493 L52.5057618,77.9123493 L52.5057618,80.3389573 L53.9435599,80.3389573 C54.6100611,80.3389573 55.1473142,79.7968952 55.1473142,79.1372689 M56.7842243,83.8729208 C56.9008969,84.2143495 56.7143604,84.5790095 56.3748221,84.6972776 C56.3280133,84.7092452 56.2343957,84.7324764 56.1177231,84.7324764 L56.1065449,84.7324764 C55.9891736,84.7324764 55.8138153,84.7092452 55.6503339,84.6029447 C55.4980307,84.5086118 55.3694812,84.3551449 55.2758636,84.1904143 C55.1123822,83.8489856 55.0306415,83.4244875 55.0306415,82.7768289 C55.0187647,82.5529643 54.9719559,82.4002013 54.8902152,82.2706696 C54.8203513,82.1404339 54.679925,82.0228698 54.5394986,81.9292409 C54.2942765,81.7638063 53.9903687,81.6701774 53.8848743,81.6462422 L52.5057618,81.6462422 L52.5057618,84.2023819 C52.5057618,84.5557782 52.2130322,84.8500405 51.8511374,84.8500405 C51.488544,84.8500405 51.20839,84.5557782 51.20839,84.2023819 L51.20839,77.2527231 C51.20839,76.8873591 51.488544,76.6043604 51.8511374,76.6043604 L51.8623156,76.6043604 L53.9435599,76.6043604 C55.3345493,76.6043604 56.4453846,77.7356511 56.4453846,79.1372689 C56.4453846,79.9144593 56.0939694,80.5980207 55.5329626,81.0689812 C55.6852658,81.1865453 55.8256922,81.3280447 55.9423648,81.5047429 C56.1764087,81.8468756 56.3280133,82.2826372 56.3280133,82.7768289 C56.3161365,83.1302253 56.351767,83.3540899 56.3748221,83.471654 C56.5620572,83.530788 56.7143604,83.6722874 56.7842243,83.8729208" id="Fill-45" fill="#0E9493"></path>
                <path d="M58.5480771,77.2527231 C58.5480771,76.8873591 58.8282311,76.6043604 59.1908245,76.6043604 C59.5415411,76.6043604 59.8454489,76.8873591 59.8454489,77.2527231 L59.8454489,84.2023819 C59.8454489,84.5670419 59.5415411,84.8500405 59.1908245,84.8500405 C58.8282311,84.8500405 58.5480771,84.5670419 58.5480771,84.2023819 L58.5480771,77.2527231 Z" id="Fill-47" fill="#0E9493"></path>
                <path d="M65.5144816,81.6104098 L64.5678264,79.0782053 L63.6204725,81.6104098 L65.5144816,81.6104098 Z M65.9937477,82.906431 L63.1530833,82.906431 L62.5801996,84.4382845 C62.4754039,84.697348 62.2294831,84.8501109 61.9723841,84.8501109 C61.8906434,84.8501109 61.8207795,84.8388473 61.750217,84.8149121 C61.4113773,84.6853804 61.2478959,84.3080488 61.3645686,83.9666201 L63.9481339,77.0289288 C64.0536284,76.7698654 64.3107274,76.6044308 64.5678264,76.6163984 C64.8368022,76.6044308 65.0820243,76.7698654 65.1868201,77.0289288 L67.7703855,83.9666201 C67.8877568,84.3080488 67.7235767,84.6853804 67.384737,84.8149121 C67.3260514,84.8388473 67.2443107,84.8501109 67.1632686,84.8501109 C66.905471,84.8501109 66.6602488,84.697348 66.5666313,84.4382845 L65.9937477,82.906431 Z" id="Fill-49" fill="#0E9493"></path>
                <g id="Group-53" transform="translate(69.054458, 76.402601)">
                    <mask id="mask-6" fill="white">
                        <use xlink:href="#path-5"></use>
                    </mask>
                    <g id="Clip-52"></g>
                    <path d="M0.106148757,7.79957002 L0.106148757,0.849911175 C0.106148757,0.496514828 0.386302819,0.201548554 0.748896232,0.201548554 C1.11148964,0.201548554 1.40352056,0.496514828 1.40352056,0.849911175 L1.40352056,7.13994377 L4.57184643,7.13994377 C4.91068613,7.13994377 5.2145939,7.43491004 5.2145939,7.79957002 C5.2145939,8.15296636 4.91068613,8.44793264 4.57184643,8.44793264 L0.78382816,8.44793264 L0.760773087,8.44793264 L0.748896232,8.44793264 C0.386302819,8.44793264 0.106148757,8.15296636 0.106148757,7.79957002" id="Fill-51" fill="#0E9493" mask="url(#mask-6)"></path>
                </g>
                <path d="M16.7101768,42.6017184 C16.5508872,40.0758497 16.1512659,37.2873977 15.5141076,34.2391782 C14.7553861,30.4292558 13.557221,28.5242946 11.9224067,28.5242946 C9.52677513,28.5242946 8.07081237,33.4373486 7.55242256,43.2627526 C9.50721325,43.3838367 12.5197427,43.5042167 16.5907096,43.6238927 L16.7101768,42.6017184 Z M23.9655382,45.8336759 C23.9655382,46.8347309 23.6085339,47.6949905 22.895224,48.4151588 C22.1812154,49.136031 21.3281777,49.4957631 20.3382068,49.4957631 C19.9812025,49.4957631 19.4460454,49.5464494 18.7327354,49.6464142 C18.0187268,49.7463789 17.4835697,49.7963612 17.1265654,49.7963612 C17.4835697,49.7963612 14.2125439,49.6766852 7.31488545,49.4366291 C7.35331057,54.1504576 8.72124487,56.5073719 11.4179897,56.5073719 C11.9328863,56.5073719 12.190684,56.0842819 12.190684,55.2359898 C12.190684,53.8632351 12.9431177,52.7530637 14.4507797,51.9047717 C15.6789863,51.2183943 17.0273587,50.8748536 18.4944997,50.8748536 C21.4679054,50.8748536 22.9546082,51.9336347 22.9546082,54.0504929 C22.9546082,56.3278578 21.6160168,58.535529 18.9402311,60.6720986 C16.2644454,62.8086681 13.756333,63.8780089 11.4179897,63.8780089 C7.41269484,63.8780089 4.41972726,62.3377077 2.4383883,59.2585132 C0.811957734,56.6988536 0.000139727712,53.2979417 0.000139727712,49.0578896 C0.000139727712,41.0177707 0.475912587,34.8178471 1.4274583,30.4574149 C3.21108255,22.2574933 6.69938487,18.1575325 11.8937626,18.1575325 C16.4922016,18.1575325 19.7625287,20.9987828 21.7054425,26.6826914 C23.2117072,31.0853622 23.9655382,35.8287578 23.9655382,40.9107662 L23.9655382,45.8336759 Z" id="Fill-54" fill="#F26E45"></path>
                <path d="M49.5359191,33.9766652 C49.5359191,35.4148898 48.8819934,36.6137623 47.5734434,37.5718747 C46.265592,38.5306911 44.8773972,39.0100993 43.4109549,39.0100993 C41.3485738,39.0100993 40.3180819,38.0921135 40.3180819,36.2540302 C40.3180819,34.0963413 40.0602843,32.2596659 39.5453877,30.7411879 C38.7922553,28.4244003 37.5626515,27.2656545 35.8579734,27.2656545 C35.263432,27.2656545 34.8267829,27.6662173 34.550122,28.4666389 C34.5102996,28.706695 34.3712705,29.3670252 34.1337334,30.4483336 C32.8251834,37.0136211 32.1712577,43.538078 32.1712577,50.0231121 C32.1712577,52.9854464 32.1908196,54.546867 32.230642,54.7059657 C32.5080015,55.8274007 33.4392867,56.3877663 35.0258949,56.3877663 C36.37287,56.3877663 37.1860853,56.0463375 37.4641434,55.3613681 C37.5430896,55.0804814 37.582912,54.0540832 37.582912,52.2828776 C37.582912,51.0361347 38.0286434,50.0195922 38.9208048,49.2353621 C39.8129663,48.451132 40.872801,48.0583129 42.1024048,48.0583129 C44.4016243,48.0583129 45.5515834,49.1375093 45.5515834,51.2944942 C45.5515834,59.6035322 42.0430206,63.7584032 35.0258949,63.7584032 C30.7830629,63.7584032 27.9088639,62.3201786 26.4032978,59.4437295 C25.3714086,57.486674 24.856512,54.3307461 24.856512,49.9759457 C24.856512,45.8217787 25.1143096,41.2677528 25.6299049,36.3138682 C26.1846239,30.801026 26.8581115,27.0255985 27.6517649,24.9882896 C29.2369758,20.7939959 31.9728444,18.6961451 35.8579734,18.6961451 C39.8220486,18.6961451 43.1328967,20.275165 45.7891205,23.430389 C48.287452,26.3870915 49.5359191,29.9020476 49.5359191,33.9766652" id="Fill-56" fill="#F26E45"></path>
                <path d="M67.0786635,46.2609194 C67.0786635,43.9040051 66.7398238,42.1067524 66.062843,40.8677532 C65.7435652,40.388345 65.3048202,39.630162 64.7473066,38.5910923 C64.2701365,37.6724026 63.4527293,35.8744459 62.2971812,33.1979261 C60.4241312,34.4369253 58.7306313,36.8740929 57.2173802,40.5080211 C55.9018438,43.5851036 55.2444249,46.2010814 55.2444249,48.3580662 C55.2444249,52.2334584 57.1370368,54.5706614 60.9229591,55.3689711 C61.1611949,55.249295 61.5000346,55.1697456 61.9380809,55.128915 C63.7706099,54.8895629 65.1462292,53.7716477 66.062843,51.7737616 C66.7398238,50.215861 67.0786635,48.3784816 67.0786635,46.2609194 M74.3333263,45.2683121 C74.3333263,53.7244813 71.4584286,58.9895237 65.7107292,61.0634393 C64.9967206,61.9405944 64.025613,62.3594605 62.7967077,62.3200378 C58.4351072,62.1595311 54.9069825,60.8036719 52.2116349,58.251756 C49.3961215,55.6188828 47.9897621,52.1292699 47.9897621,47.7815092 C47.9897621,42.8360723 49.3569978,37.8293894 52.0928664,32.7642764 C55.4232764,26.5819523 59.3475292,23.4907902 63.8677206,23.4907902 C65.4522329,23.4907902 66.6818368,24.0687552 67.5544363,25.225389 C67.9903868,25.8244733 68.5653663,27.1606212 69.2793749,29.2345368 C69.516912,29.9124665 70.4474986,31.9666707 72.0739292,35.3964456 C73.3021358,38.0293188 74.0161444,40.3827132 74.2145577,42.4566288 C74.2942025,43.2943612 74.3333263,44.2320583 74.3333263,45.2683121" id="Fill-58" fill="#F26E45"></path>
                <g id="Group-62" transform="translate(26.437505, 0.373108)">
                    <mask id="mask-8" fill="white">
                        <use xlink:href="#path-7"></use>
                    </mask>
                    <g id="Clip-61"></g>
                    <path d="M8.53627094,1.50636953 C8.46990027,1.20365951 8.32388481,0.94530003 8.09612864,0.761562088 C7.86907111,0.577824147 7.58751977,0.490531025 7.28011881,0.489827048 L0.670998032,0.330728295 C0.670998032,0.330728295 0.0841416425,0.435620836 0.0666756785,0.91010119 C0.0666756785,0.91010119 -0.0360241897,1.35219861 0.513804357,1.54297632 L5.45527489,2.39690016 C5.81297783,2.45110638 6.15461209,2.59401366 6.446643,2.83125384 C6.74076984,3.06849402 6.95315596,3.37401994 7.08310273,3.71474471 L8.89816571,8.27158645 C8.89816571,8.27158645 9.11893549,8.74888271 9.70090141,8.68482083 C9.70090141,8.68482083 10.273785,8.55176921 10.0928376,7.89847875 L8.53627094,1.50636953 Z" id="Fill-60" fill="#05AEA4" mask="url(#mask-8)"></path>
                </g>
                <path d="M33.9381146,10.4843967 C33.9541833,10.6498312 34.0135676,10.7976664 34.1218566,10.9110066 C34.2301455,11.0243469 34.3740651,11.0898167 34.5382451,11.11164 L38.0433148,11.6515902 C38.0433148,11.6515902 38.3611953,11.6361027 38.4045109,11.384783 C38.4045109,11.384783 38.4883476,11.1566945 38.2088921,11.0173071 L35.6379022,10.2225173 C35.4520644,10.1697191 35.2795007,10.0704583 35.1397729,9.92332719 C35.0000452,9.77619604 34.9071263,9.60020184 34.8624134,9.41012811 L34.2049946,6.86102816 C34.2049946,6.86102816 34.1197606,6.59070108 33.8053733,6.58506926 C33.8053733,6.58506926 33.4916846,6.61674822 33.5440825,6.97718433 L33.9381146,10.4843967 Z" id="Fill-63" fill="#F26E45"></path>
                <path d="M50.1034232,13.7238867 C50.5882784,13.8161076 51.0591608,13.7640133 51.4734534,13.5457805 C51.8856502,13.3268438 52.1916539,12.9635917 52.3886699,12.5081188 L56.8320112,2.80943056 C56.8320112,2.80943056 57.0513837,1.87243746 56.3702111,1.54227234 C56.3702111,1.54227234 55.7868479,1.10932662 55.1608677,1.80203978 L50.7650339,8.58485612 C50.4604275,9.08045578 50.034258,9.49650606 49.5011968,9.78161666 C48.9667383,10.0660233 48.3861696,10.1856993 47.8049023,10.1624681 L39.9948219,9.95057109 C39.9948219,9.95057109 39.1550583,9.97661823 38.8790961,10.8784125 C38.8790961,10.8784125 38.707231,11.8118857 39.7768467,11.9611288 L50.1034232,13.7238867 Z" id="Fill-65" fill="#05AEA4"></path>
                <path d="M37.0824073,8.27088247 C37.1466821,8.58415214 37.2926975,8.85447923 37.5225496,9.0494808 C37.7544976,9.24166646 38.0430353,9.33740731 38.3609159,9.34444707 L45.1817241,9.63589346 C45.1817241,9.63589346 45.7888411,9.53733671 45.8167866,9.04807285 C45.8167866,9.04807285 45.9313633,8.59259987 45.367562,8.38563069 L40.2821719,7.40921489 C39.914688,7.34726493 39.5639715,7.19309401 39.2649542,6.94388623 C38.9659369,6.69256652 38.7535508,6.37436901 38.623604,6.01886073 L36.8371852,1.279689 C36.8371852,1.279689 36.6157168,0.781273438 36.0148876,0.836887604 C36.0148876,0.836887604 35.4203462,0.962195472 35.5943072,1.64153307 L37.0824073,8.27088247 Z" id="Fill-67" fill="#F26E45"></path>
                <path d="M46.3792605,2.27124031 C46.3114926,1.95937859 46.1619839,1.68975548 45.9314332,1.49686584 C45.6973893,1.30679211 45.4074543,1.21386717 45.0895737,1.20964331 L38.2666695,0.97803495 C38.2666695,0.97803495 37.6602513,1.08151954 37.6371962,1.57007943 C37.6371962,1.57007943 37.5268113,2.02766434 38.0920099,2.22970568 L43.1857836,3.16106697 C43.5546648,3.22020102 43.9067786,3.37085205 44.2064946,3.6179479 C44.5083064,3.86715568 44.7241858,4.18394524 44.8562284,4.53734159 L46.6838669,9.26102583 C46.6838669,9.26102583 46.9081299,9.75662548 47.5082604,9.69678746 C47.5082604,9.69678746 48.1021032,9.5651438 47.9225531,8.88791813 L46.3792605,2.27124031 Z" id="Fill-69" fill="#F26E45"></path>
                <path d="M61.7603473,2.51650582 C62.1355162,2.03428172 62.6140836,1.69566889 63.1722958,1.55768944 C63.7319053,1.42463782 64.3089808,1.50841106 64.8588093,1.7681785 L76.80483,7.09798675 C76.80483,7.09798675 77.7654581,7.78647605 77.402166,8.64814363 C77.402166,8.64814363 77.212835,9.5288186 76.0733555,9.4013988 L66.5250623,6.72910291 C65.8424924,6.52213374 65.1117165,6.48623092 64.3893242,6.65940921 C63.6655347,6.83399545 63.0304722,7.19935941 62.5113838,7.69777497 L55.4551343,14.3003733 C55.4551343,14.3003733 54.6579877,14.9663353 53.673606,14.3588033 C53.673606,14.3588033 52.7597867,13.6358192 53.6288931,12.6192767 L61.7603473,2.51650582 Z" id="Fill-71" fill="#F26E45"></path>
                <path d="M82.9611632,13.8146293 C83.7778716,13.8188531 84.5289081,14.0511655 85.1332304,14.5369095 C85.7368542,15.0247654 86.1232013,15.7111427 86.3027514,16.5150842 L90.9549856,35.5534325 C90.9549856,35.5534325 91.0206576,37.1493478 89.8134102,37.4703612 C89.8134102,37.4703612 88.7305204,37.993416 87.9228942,36.6678277 L82.4455679,22.3897705 C82.1004405,21.4865683 81.5366391,20.675587 80.7583558,20.0441199 C79.9765792,19.4133567 79.0676505,19.0353211 78.1140088,18.8903019 L65.3373069,16.7783715 C65.3373069,16.7783715 63.9763589,16.4735496 63.8058911,14.9191689 C63.8058911,14.9191689 63.8163707,13.3443728 65.6034882,13.4365937 L82.9611632,13.8146293 Z" id="Fill-73" fill="#05AEA4"></path>
                <path d="M65.3904733,8.26553225 C65.6315036,7.96845405 65.9347127,7.76289283 66.2861279,7.6847514 C66.6382417,7.60801793 66.9973419,7.66855994 67.3389762,7.83821834 L74.7445449,11.3320551 C74.7445449,11.3320551 75.3362918,11.7755605 75.098056,12.3091749 C75.098056,12.3091749 74.9688079,12.8568689 74.2561966,12.7632399 L68.3170702,10.9652832 C67.8929966,10.8265998 67.4367856,10.7942169 66.9812733,10.8927736 C66.5271582,10.9920343 66.1240437,11.2130831 65.7928891,11.517905 L61.2915608,15.5566198 C61.2915608,15.5566198 60.7843492,15.9628144 60.1765337,15.5692914 C60.1765337,15.5692914 59.6141296,15.1046667 60.1709446,14.4802393 L65.3904733,8.26553225 Z" id="Fill-75" fill="#F26E45"></path>
                <path d="M47.766058,4.42963314 C47.7220438,4.21210431 47.7416057,4.00091127 47.8359219,3.81435742 C47.9309367,3.62780358 48.0888291,3.48841617 48.287941,3.39689919 L52.5461431,1.34199095 C52.5461431,1.34199095 52.9576412,1.23780238 53.1078485,1.5405124 C53.1078485,1.5405124 53.3041659,1.79957586 53.002354,2.08468646 L50.0324415,4.100172 C49.8158636,4.24096736 49.6349162,4.43456097 49.5112572,4.67461706 C49.3889954,4.91678507 49.3407894,5.17725648 49.3540635,5.43913585 L49.4972844,8.94142036 C49.4972844,8.94142036 49.4916953,9.31804795 49.0948686,9.4468757 C49.0948686,9.4468757 48.6833705,9.52994496 48.6107121,9.05194472 L47.766058,4.42963314 Z" id="Fill-77" fill="#F26E45"></path>
                <path d="M90.1877407,52.865348 C90.4455383,52.9934718 90.6474449,53.1828415 90.7648161,53.4320493 C90.8793929,53.6777372 90.8975575,53.9551041 90.8318854,54.2366948 L89.5421987,60.32539 C89.5421987,60.32539 89.3186343,60.8399971 88.8889716,60.7541119 C88.8889716,60.7541119 88.464898,60.752 88.4125001,60.2071219 L88.7150106,55.4961093 C88.7429562,55.1560885 88.6898596,54.8146597 88.5396523,54.4929423 C88.3887464,54.1719289 88.159593,53.9121615 87.8801375,53.7185679 L84.1626818,51.0673913 C84.1626818,51.0673913 83.7805265,50.7597534 83.9656657,50.2423305 C83.9656657,50.2423305 84.2080933,49.7460269 84.7593191,50.0529607 L90.1877407,52.865348 Z" id="Fill-79" fill="#F26E45"></path>
                <path d="M87.6036164,46.607628 C87.3835452,46.7984057 87.1278435,46.9131539 86.8532786,46.9251215 C86.578015,46.9370891 86.3153269,46.8448681 86.081283,46.6716898 L80.9588651,43.0602889 C80.9588651,43.0602889 80.5711206,42.6484625 80.8205346,42.2781707 C80.8205346,42.2781707 80.9896051,41.8825358 81.5121868,42.0472663 L85.7529228,44.1866518 C86.0547347,44.3478625 86.3935744,44.4316357 86.7491814,44.4175562 C87.1047885,44.4041806 87.4359431,44.2908403 87.7251795,44.1042865 L91.6424459,41.6600791 C91.6424459,41.6600791 92.0776977,41.420727 92.4843054,41.7966506 C92.4843054,41.7966506 92.8455015,42.2211486 92.3452763,42.6188955 L87.6036164,46.607628 Z" id="Fill-81" fill="#F26E45"></path>
                <path d="M83.0158666,27.2664289 C83.3791586,27.3128914 83.6984364,27.4586146 83.9422613,27.7064144 C84.1818943,27.9563262 84.3174302,28.2822674 84.3530608,28.6483353 L85.3011133,36.5061242 C85.3011133,36.5061242 85.2445236,37.2178448 84.6905032,37.2938743 C84.6905032,37.2938743 84.1811957,37.4670526 83.8954525,36.8341774 L82.324913,31.0439684 C82.2201172,30.6236942 82.0133202,30.2329871 81.7024261,29.9098617 C81.3901346,29.5874404 81.0065821,29.3699116 80.5915908,29.2530514 L75.0360169,27.6148974 C75.0360169,27.6148974 74.4477633,27.4051123 74.4568456,26.7053594 C74.4568456,26.7053594 74.5455727,26.0070144 75.3343356,26.1464018 L83.0158666,27.2664289 Z" id="Fill-83" fill="#F26E45"></path>
                <path d="M75.0767476,25.2196164 C74.7931003,25.2956459 74.5101517,25.2857902 74.2558473,25.1745619 C74.0008442,25.0612216 73.8024308,24.8591803 73.6654977,24.5973009 L70.601269,19.0274366 C70.601269,19.0274366 70.4287052,18.4797426 70.8185455,18.2530621 C70.8185455,18.2530621 71.1476043,17.9700635 71.5507188,18.3544348 L74.4591511,22.1932202 C74.6631535,22.4741069 74.9356226,22.7014914 75.2632841,22.8479186 C75.5937401,22.9936418 75.9444567,23.0401043 76.2895841,22.9999776 L80.9236537,22.5283131 C80.9236537,22.5283131 81.4245775,22.5057859 81.62858,23.0302486 C81.62858,23.0302486 81.7711022,23.5786465 81.1409303,23.714514 L75.0767476,25.2196164 Z" id="Fill-85" fill="#F26E45"></path>
                <path d="M78.887262,3.18211587 C79.2435677,3.2419539 79.5537632,3.39682879 79.782218,3.65096441 C80.0099742,3.90650799 80.13014,4.23244924 80.1510991,4.59499728 L80.7805725,12.3697169 C80.7805725,12.3697169 80.6981331,13.0680619 80.1490032,13.1215641 C80.1490032,13.1215641 79.6417916,13.2708072 79.383994,12.6372281 L78.0607726,6.87447412 C77.9734428,6.45631191 77.7862076,6.06349286 77.4906835,5.73403173 C77.195858,5.40316264 76.8283742,5.1736662 76.4238624,5.04272652 L71.0150027,3.21238687 C71.0150027,3.21238687 70.4456123,2.98218646 70.4805442,2.29369717 C70.4805442,2.29369717 70.5958196,1.60943173 71.3671165,1.77768218 L78.887262,3.18211587 Z" id="Fill-87" fill="#F26E45"></path>
                <path d="M81.1043216,41.2692312 C80.637631,41.305838 80.1995847,41.2093932 79.8314021,40.9615933 C79.4667128,40.7137935 79.2145043,40.3406858 79.0754752,39.8929566 L75.8617378,30.3118325 C75.8617378,30.3118325 75.7499557,29.4079263 76.422046,29.1657583 C76.422046,29.1657583 77.0151901,28.8172898 77.5349772,29.5339381 L80.9939367,36.3639209 C81.2342684,36.8616325 81.5919713,37.2973942 82.0649496,37.6191115 C82.5393252,37.9408289 83.0730851,38.1133032 83.6250095,38.14991 L90.996345,38.7426585 C90.996345,38.7426585 91.7844093,38.8510709 91.9541784,39.72893 C91.9541784,39.72893 92.0219464,40.6257964 91.0012354,40.6574754 L81.1043216,41.2692312 Z" id="Fill-89" fill="#05AEA4"></path>
                <path d="M94.5774265,51.1222311 C94.572536,50.6808376 94.4460824,50.276755 94.1875862,49.9529256 C93.9255967,49.6298003 93.5609074,49.4228311 93.1340392,49.3292022 L84.0028333,47.1032276 C84.0028333,47.1032276 83.1581792,47.0722526 82.9891087,47.7234312 C82.9891087,47.7234312 82.7152424,48.3098438 83.421566,48.7392697 L90.0285908,51.4242371 C90.5078569,51.609383 90.9403142,51.9099811 91.2784552,52.3267354 C91.615199,52.7463055 91.8185028,53.2341614 91.8988463,53.7473605 L93.0578876,60.6245098 C93.0578876,60.6245098 93.223465,61.3573496 94.0492557,61.4446427 C94.0492557,61.4446427 94.8848275,61.4340831 94.8310323,60.4724508 L94.5774265,51.1222311 Z" id="Fill-91" fill="#05AEA4"></path>
                <path d="M25.3881759,9.4317402 C25.1171042,9.39090954 24.8809643,9.2768653 24.7049074,9.08397566 C24.5281519,8.89179 24.4366302,8.64469415 24.4156711,8.3701432 L23.8826098,2.46518591 C23.8826098,2.46518591 23.9412955,1.93368344 24.3590813,1.8893329 C24.3590813,1.8893329 24.7426339,1.77317673 24.9417459,2.25258492 L25.9890051,6.62216884 C26.0560744,6.93895839 26.2041858,7.2360366 26.4312433,7.4845404 C26.6562049,7.73445216 26.9391535,7.90692648 27.2451572,8.00125937 L31.3713166,9.35430275 C31.3713166,9.35430275 31.8051711,9.52396116 31.7842119,10.0470159 C31.7842119,10.0470159 31.6996767,10.5700707 31.1135189,10.4475787 L25.3881759,9.4317402 Z" id="Fill-93" fill="#F26E45"></path>
                <path d="M31.8921516,3.41696253 C32.1534424,3.46060909 32.3811986,3.57394935 32.5481732,3.76191115 C32.7137505,3.95128091 32.8003817,4.18922506 32.8157518,4.45532829 L33.2524009,10.16458 C33.2524009,10.16458 33.190222,10.6756672 32.7871076,10.7129779 C32.7871076,10.7129779 32.413336,10.8206864 32.2288954,10.3546538 L31.2759524,6.12164134 C31.2123763,5.81470746 31.0761418,5.52607698 30.8609611,5.28250101 C30.6443831,5.03962902 30.3733114,4.86926664 30.0791845,4.77422977 L26.1144107,3.41203469 C26.1144107,3.41203469 25.6980221,3.24308026 25.7259677,2.73692095 C25.7259677,2.73692095 25.8132975,2.2349855 26.3777975,2.36029337 L31.8921516,3.41696253 Z" id="Fill-95" fill="#F26E45"></path>
                <path d="M80.906537,3.48651544 L81.6477925,12.4805229 C81.6477925,12.4805229 84.5184984,11.9060778 85.6880193,13.8237106 C85.6880193,13.8237106 84.5527317,5.78429567 80.906537,3.48651544" id="Fill-97" fill="#D3B593"></path>
                <g id="Group-101" transform="translate(94.904084, 51.763413)">
                    <mask id="mask-10" fill="white">
                        <use xlink:href="#path-9"></use>
                    </mask>
                    <g id="Clip-100"></g>
                    <path d="M0.400275591,8.76943884 L0.063531805,0.314677624 L1.05769448,4.38999924 C1.05769448,4.38999924 1.92191037,7.08975022 0.400275591,8.76943884" id="Fill-99" fill="#C7E3BC" mask="url(#mask-10)"></path>
                </g>
                <path d="M84.6183338,52.2914661 L86.9224438,58.1584087 C86.9224438,58.1584087 87.3849425,59.3692487 87.7237822,59.6529514 L88.1373762,55.8697801 C88.1373762,55.8697801 88.3476665,54.6680918 87.513492,54.2485216 L84.6183338,52.2914661 Z" id="Fill-102" fill="#C7E3BC"></path>
                <path d="M89.9856944,61.4466842 C89.9856944,61.4466842 91.2676962,62.0887111 92.6216577,61.9246845 L91.6540433,55.0334557 C91.6540433,55.0334557 91.5932617,54.7391934 91.3906566,54.751161 C91.3906566,54.751161 91.1251739,54.6786514 91.072776,55.0475353 L89.9856944,61.4466842 Z" id="Fill-104" fill="#D3B593"></path>
                <path d="M92.7445482,43.0465614 L94.1606886,48.8487381 L88.6037175,47.6949201 C88.6037175,47.6949201 87.5899929,47.3802425 88.4765653,46.6762657 L92.7445482,43.0465614 Z" id="Fill-106" fill="#C7E3BC"></path>
                <path d="M38.2811314,3.03195762 L39.252239,5.75353188 C39.252239,5.75353188 39.7000663,6.872151 41.074987,7.06504064 L45.2388728,7.67538851 L44.1769422,5.10235335 C44.1769422,5.10235335 43.9435969,4.03582852 42.8767758,3.77958097 L38.2811314,3.03195762 Z" id="Fill-108" fill="#D3B593"></path>
                <path d="M46.5843808,1.16789749 L51.6264553,1.26011845 L48.2806752,2.81942703 C48.2806752,2.81942703 47.3968974,3.19323871 47.449994,3.79865874 L46.5843808,1.16789749 Z" id="Fill-110" fill="#D3B593"></path>
                <polygon id="Fill-112" fill="#C7E3BC" points="54.5304163 10.0223767 57.7546333 1.43174799 61.2813607 1.51129737"></polygon>
                <path d="M24.0417597,8.64152625 L23.4220673,2.57676623 C23.4220673,2.57676623 22.3636299,3.73551202 22.4635352,5.6679283 C22.5138372,6.63096855 22.898787,7.68974964 24.0417597,8.64152625" id="Fill-114" fill="#D3B593"></path>
                <path d="M25.9036315,4.04659937 L26.5296116,6.5323414 C26.5296116,6.5323414 26.6798189,7.13072167 27.4650886,7.5059413 L31.142722,8.62667234 L30.6222363,6.36901879 C30.6222363,6.36901879 30.3644387,5.49608757 29.5637989,5.28489454 L25.9036315,4.04659937 Z" id="Fill-116" fill="#C7E3BC"></path>
                <path d="M56.0876118,14.7923826 L57.9927991,15.1218438 L63.2374788,8.88812932 C63.2374788,8.88812932 63.4540568,8.56922784 63.1857796,8.36577855 C63.0977511,8.29819677 62.8797759,8.25173431 62.6380469,8.43124839 L56.0876118,14.7923826 Z" id="Fill-118" fill="#D3B593"></path>
                <path d="M73.3476171,19.1255006 L74.9006906,21.1853366 C74.9006906,21.1853366 75.4176832,22.1364093 76.6214374,22.113882 L80.259947,21.719655 C80.259947,21.719655 79.8114211,20.3447883 78.1717164,20.0174391 L73.3476171,19.1255006 Z" id="Fill-120" fill="#D3B593"></path>
                <path d="M78.3171031,29.6051806 L81.5818411,35.9437876 C81.5818411,35.9437876 82.2071226,37.1694112 83.174737,37.0793021 C82.9742277,36.478106 82.7751157,35.8776138 82.5732092,35.2771216 C82.2224926,34.2289001 81.8927352,33.170119 81.5175663,32.1303453 C81.2576728,31.4073612 81.1060682,30.7245037 80.4779921,30.229608 C79.844327,29.7311924 79.1296197,29.4826886 78.3171031,29.6051806" id="Fill-122" fill="#D3B593"></path>
                <path d="M82.8788635,41.955327 L90.648423,41.4843665 L87.7190315,43.347793 C87.7190315,43.347793 86.869487,43.9130864 85.8557624,43.4146708 L82.8788635,41.955327 Z" id="Fill-124" fill="#D3B593"></path>
                <path d="M77.6199316,25.8612912 L83.097258,26.6138424 L81.9948063,24.140772 L77.4417788,25.1805457 C77.4417788,25.1805457 76.9087176,25.5747727 77.6199316,25.8612912" id="Fill-126" fill="#C7E3BC"></path>
            </g>
        </g>
    </g>
</svg>