<svg width="2000" height="680" viewBox="0 0 2000 680" xmlns="http://www.w3.org/2000/svg"><title>hero-content-stream-xlarge</title><g fill-rule="nonzero" fill="none"><path d="M1524.254 111.894l15.572-72.622h10.402l15.572 72.622h-10.385l-3.914-18.125h-12.974l-3.889 18.16-10.384-.035zm15.572-25.968h10.402l-5.232-31.126-5.17 31.126z" fill="#FFF"/><path fill="#E7503D" d="M881.792 540.189h238.279v100.427H881.792z"/><path d="M943.295 617.473l8.475-46.663h13.288l8.396 46.663H962.99l-1.465-9.316h-6.05l-1.396 9.316h-10.785zm13.079-15.903h4.193l-2.11-17.428-2.083 17.428zM1001.59 626.535a21.328 21.328 0 0 1-5.136-3.268 22.287 22.287 0 0 1-4.804-5.123h-.933a19.977 19.977 0 0 1-6.818-1.029 10.07 10.07 0 0 1-4.473-3.067 12.606 12.606 0 0 1-2.397-4.81 25.788 25.788 0 0 1-.733-6.544V585.5c-.036-2.203.21-4.403.733-6.544a12.606 12.606 0 0 1 2.397-4.81 10.07 10.07 0 0 1 4.473-3.067c4.445-1.37 9.2-1.37 13.645 0a10.158 10.158 0 0 1 4.508 3.067 12.65 12.65 0 0 1 2.424 4.81c.533 2.14.785 4.34.75 6.544v17.219c0 6.866-1.98 11.398-5.938 13.594a18.22 18.22 0 0 0 4.787 3.825l-2.485 6.396zm-10.873-16.269a2.617 2.617 0 0 0 1.517-.41c.419-.286.727-.707.872-1.193.156-.467.264-.95.323-1.438.05-.533.074-1.068.07-1.603v-23.005c.004-.535-.02-1.07-.07-1.603a7.098 7.098 0 0 0-.323-1.42 2.222 2.222 0 0 0-.872-1.186 2.617 2.617 0 0 0-1.517-.41 2.538 2.538 0 0 0-1.299.314c-.32.173-.594.417-.802.715a3.17 3.17 0 0 0-.41 1.124 7.49 7.49 0 0 0-.157 1.185V606.93c.02.401.073.8.157 1.194.065.397.204.778.41 1.124a2.468 2.468 0 0 0 2.101 1.054v-.035zM1024.215 618.178a21.905 21.905 0 0 1-6.818-.871 9.53 9.53 0 0 1-4.36-2.84 11.404 11.404 0 0 1-2.318-4.602 26.24 26.24 0 0 1-.69-6.474v-32.607h11.335v34.49c-.004.544.025 1.088.088 1.629.068.503.182.998.34 1.481.143.499.45.934.871 1.237.95.581 2.146.581 3.096 0 .42-.303.728-.739.872-1.237a7.56 7.56 0 0 0 .322-1.481c.051-.542.074-1.086.07-1.63v-34.49h11.404v32.564c.04 2.18-.197 4.355-.706 6.475a11.648 11.648 0 0 1-2.32 4.6 9.434 9.434 0 0 1-4.359 2.841 21.931 21.931 0 0 1-6.827.915zM1043.598 617.473v-46.69h11.395v46.69h-11.395zm2.362-50.828l3.601-11.677h10.664l-7.516 11.677h-6.749zM560.491 111.894V39.272h16.095c7.597 0 12.957 1.554 16.078 4.662 3.121 3.108 4.682 8.47 4.682 16.086v28.52c0 7.97-1.587 13.853-4.76 17.646-3.174 3.793-8.533 5.69-16.078 5.69l-16.017.018zm10.384-7.782h5.72a17.91 17.91 0 0 0 4.36-.462 5.877 5.877 0 0 0 2.955-1.742 13.803 13.803 0 0 0 1.744-2.353 9.224 9.224 0 0 0 .872-3.486c.174-1.568.276-2.858.305-3.869.03-1.01.03-2.585 0-4.723V59.393c0-.785-.04-1.711-.122-2.78a17.827 17.827 0 0 0-.305-2.536 23.254 23.254 0 0 0-.567-2.091 5.227 5.227 0 0 0-.872-1.804 13.763 13.763 0 0 0-1.334-1.36 5.136 5.136 0 0 0-1.822-1.054 15.553 15.553 0 0 0-2.415-.566 19.48 19.48 0 0 0-3.087-.227h-5.51l.078 57.137zM621.245 111.894V39.272h10.384v72.622zM676.217 112.626c-6.545 0-11.538-1.917-14.979-5.752-3.44-3.834-5.368-9.062-5.78-15.685l10.384-2.614c.511 10.376 3.973 15.563 10.384 15.563 5.19 0 7.786-2.594 7.786-7.781a13.935 13.935 0 0 0-.628-4.279 11.326 11.326 0 0 0-1.927-3.607 24.874 24.874 0 0 0-2.354-2.614c-.703-.663-1.662-1.479-2.877-2.449L663.252 73.03a20.28 20.28 0 0 1-5.702-7.11 21.94 21.94 0 0 1-2.127-9.83c0-5.35 1.662-9.606 4.987-12.766s7.73-4.74 13.218-4.74c5.894 0 10.579 1.452 14.055 4.357 3.476 2.904 5.618 6.97 6.426 12.2.081.58.177 1.364.287 2.352l-10.384 2.614c0-.459-.067-1.147-.2-2.065a15.82 15.82 0 0 0-3.104-7.921c-1.61-1.987-3.97-2.98-7.08-2.98a7.658 7.658 0 0 0-5.755 2.082 7.996 7.996 0 0 0-2.031 5.813 12.624 12.624 0 0 0 5.231 10.256l12.974 10.378c6.917 5.594 10.378 12.275 10.384 20.042 0 5.321-1.642 9.48-4.926 12.478-3.284 2.998-7.713 4.476-13.288 4.436zM717.3 111.894V39.272h28.547v7.782h-18.162v23.344h12.974v7.782h-12.974v33.714zM766.397 111.894V39.272h12.991c7.731 0 13.544 1.499 17.438 4.497 3.895 2.997 5.853 7.981 5.877 14.953.13 3.755-.661 7.485-2.302 10.866a12.204 12.204 0 0 1-6.775 5.995l11.675 36.31h-10.262L784.576 78.18h-7.786v33.714h-10.393zm10.384-41.496h2.616c4.325 0 7.568-.912 9.73-2.736 2.163-1.824 3.244-4.801 3.244-8.932 0-4.13-1.081-7.107-3.244-8.931-2.162-1.825-5.408-2.74-9.739-2.745h-2.615l.008 23.344zM854.18 111.414a28.404 28.404 0 0 1-16.706 0 15.966 15.966 0 0 1-5.938-3.485 17.096 17.096 0 0 1-3.793-5.655 30.31 30.31 0 0 1-2.066-7.355 59.22 59.22 0 0 1-.61-8.932V39.272h10.384v46.654c0 2.243.046 4.12.14 5.63.111 1.633.362 3.254.75 4.844.299 1.464.87 2.86 1.682 4.113a8.168 8.168 0 0 0 3.043 2.553 11.716 11.716 0 0 0 9.53 0 8.168 8.168 0 0 0 3.043-2.553 12.021 12.021 0 0 0 1.682-4.113c.386-1.59.637-3.211.75-4.845.093-1.51.14-3.386.14-5.629V39.272h10.384v46.654a59.22 59.22 0 0 1-.61 8.932 30.31 30.31 0 0 1-2.067 7.355 17.105 17.105 0 0 1-3.793 5.655 15.975 15.975 0 0 1-5.946 3.546zM901.07 111.894V48.518h-12.974v-9.246h36.331v9.237h-12.973v63.385zM946.138 111.894V39.272h28.545v7.782h-18.161v23.344h12.974v7.782h-12.974v25.932h18.161v7.782zM1031.138 111.894V39.272h16.095c7.597 0 12.957 1.554 16.078 4.662 3.121 3.108 4.682 8.47 4.682 16.086v28.52c0 7.97-1.587 13.853-4.76 17.646-3.174 3.793-8.536 5.696-16.087 5.708h-16.008zm10.384-7.782h5.72a17.91 17.91 0 0 0 4.36-.462 5.877 5.877 0 0 0 2.955-1.742 13.803 13.803 0 0 0 1.744-2.353 9.224 9.224 0 0 0 .872-3.486c.174-1.568.276-2.858.305-3.869.03-1.01.03-2.585 0-4.723V59.393c0-.785-.04-1.711-.122-2.78a17.828 17.828 0 0 0-.305-2.536 23.254 23.254 0 0 0-.567-2.091 5.227 5.227 0 0 0-.872-1.804 13.763 13.763 0 0 0-1.334-1.36 5.136 5.136 0 0 0-1.822-1.054 15.553 15.553 0 0 0-2.415-.566 19.48 19.48 0 0 0-3.087-.227h-5.51l.078 57.137zM1091.613 111.894V39.272h28.545v7.782h-18.187v23.344h12.973v7.782h-12.973v25.932h18.161v7.782zM1176.587 111.894V39.272h7.786l18.17 44.912V39.272h10.385v72.622h-7.377l-18.57-48.31v48.31zM1266.043 111.414a28.404 28.404 0 0 1-16.705 0 15.966 15.966 0 0 1-5.938-3.485 17.096 17.096 0 0 1-3.792-5.655 30.31 30.31 0 0 1-2.067-7.355 59.22 59.22 0 0 1-.61-8.932V39.272h10.384v46.654c0 2.243.047 4.12.14 5.63.111 1.633.362 3.254.75 4.844.299 1.464.87 2.86 1.682 4.113a8.168 8.168 0 0 0 3.043 2.553 11.716 11.716 0 0 0 9.53 0 8.168 8.168 0 0 0 3.043-2.553 12.021 12.021 0 0 0 1.682-4.113c.386-1.59.637-3.211.75-4.845.093-1.51.14-3.386.14-5.629V39.272h10.384v46.654a59.22 59.22 0 0 1-.61 8.932 30.31 30.31 0 0 1-2.067 7.355 17.105 17.105 0 0 1-3.792 5.655 15.975 15.975 0 0 1-5.947 3.546zM1302.47 111.894V39.272h28.547v7.782h-18.162v23.344h12.974v7.782h-12.974v25.932h18.162v7.782zM1371.882 112.626c-6.545 0-11.538-1.917-14.979-5.752-3.441-3.834-5.368-9.062-5.78-15.685l10.384-2.614c.511 10.376 3.973 15.563 10.384 15.563 5.19 0 7.786-2.594 7.786-7.781a13.935 13.935 0 0 0-.628-4.279 11.326 11.326 0 0 0-1.927-3.607 24.874 24.874 0 0 0-2.354-2.614c-.703-.663-1.662-1.479-2.877-2.449l-12.974-10.378a20.28 20.28 0 0 1-5.737-7.146 21.94 21.94 0 0 1-2.127-9.829c0-5.35 1.662-9.605 4.987-12.766 3.325-3.16 7.73-4.74 13.218-4.74 5.894 0 10.579 1.452 14.055 4.357 3.476 2.905 5.618 6.971 6.426 12.2.08.58.177 1.365.287 2.352l-10.384 2.614c0-.459-.067-1.147-.2-2.065a15.82 15.82 0 0 0-3.104-7.92c-1.61-1.988-3.97-2.981-7.08-2.981a7.658 7.658 0 0 0-5.755 2.083 7.996 7.996 0 0 0-2.031 5.812 12.624 12.624 0 0 0 5.231 10.256l12.974 10.378c6.917 5.595 10.378 12.275 10.384 20.042 0 5.321-1.642 9.48-4.926 12.478-3.284 2.998-7.702 4.488-13.253 4.47zM1422.06 111.894V48.518h-12.974v-9.246h36.332v9.237h-12.974v63.385zM1467.101 111.894V39.272h12.974c7.731 0 13.544 1.499 17.438 4.497 3.894 2.997 5.853 7.981 5.877 14.953a23.063 23.063 0 0 1-2.31 10.857 12.204 12.204 0 0 1-6.776 5.995l11.675 36.31h-10.245l-10.462-33.713h-7.786v33.723H1467.1zm10.385-41.496h2.615c4.325 0 7.568-.912 9.73-2.736 2.163-1.824 3.244-4.801 3.244-8.932 0-4.13-1.081-7.107-3.243-8.931-2.163-1.825-5.406-2.737-9.73-2.737h-2.616v23.336z" fill="#FFF"/><path fill="#F9A51A" d="M683.28 511.163h86.788v6.971H683.28zM1394.952 358.984l-13.924-13.55-13.924 13.55-16.365-15.92 4.865-4.993 11.5 11.18 13.924-13.55 13.924 13.55 13.925-13.55 13.932 13.55 13.924-13.55 13.933 13.55 13.924-13.55 13.933 13.55 13.924-13.55 13.933 13.55 13.924-13.55 13.933 13.55 13.933-13.55 13.933 13.559 11.5-11.19 4.865 4.994-16.365 15.92-13.933-13.559-13.933 13.56-13.933-13.55-13.924 13.55-13.933-13.55-13.924 13.55-13.933-13.55-13.924 13.55-13.933-13.55-13.924 13.55-13.932-13.55zM557.492 140.824h102.16v6.971h-102.16zM509.782 140.824h22.721v6.971h-22.721zM474.148 140.824h11.361v6.971h-11.361zM422.192 140.824h11.361v6.971h-11.361zM579.882 313.507V196.592h-21.998v-20.634h71.626v20.634h-21.658v116.915zM647.009 313.507V175.958h34.815a90.65 90.65 0 0 1 18.841 1.743 40.303 40.303 0 0 1 13.95 5.768 24.646 24.646 0 0 1 9.13 11.285c2.016 4.81 3.028 10.727 3.033 17.75 0 8.848-1.258 16.01-3.775 21.488-2.517 5.479-6.847 9.626-12.991 12.444l19.007 67.097h-28.554l-15.773-62.043h-9.713v62.051l-27.97-.034zm27.97-78.974h6.975c6.749 0 11.536-1.59 14.36-4.767 2.825-3.177 4.238-8.252 4.238-15.223 0-6.803-1.232-11.767-3.697-14.892-2.464-3.125-6.894-4.69-13.288-4.697h-8.553l-.035 39.579zM745.707 313.507l26.898-137.549h30.708l26.81 137.549h-25.982l-5.065-30.447h-21.798l-5.065 30.447h-26.506zm34.196-47.787h16.348l-8.214-54.75-8.134 54.75zM848.634 313.507V175.958h19.504l30.708 71.454v-71.454h23.245v137.549h-18.676l-30.883-75.96v75.994zM981.161 315.328c-12.787 0-22.335-3.512-28.641-10.535-6.307-7.024-9.736-17.82-10.289-32.39l24.24-4.357c.11 8.575 1.272 15.032 3.487 19.371 2.214 4.34 5.565 6.536 10.053 6.588 3.266 0 5.632-1.052 7.097-3.155a13.936 13.936 0 0 0 2.197-8.13c0-5.42-1.163-9.968-3.488-13.646-2.325-3.677-6.103-7.784-11.334-12.32l-14.779-12.775a73.714 73.714 0 0 1-9.085-9.167 37.227 37.227 0 0 1-5.807-10.867 43.12 43.12 0 0 1-2.363-14.639c0-11.119 3.293-19.734 9.879-25.845 6.586-6.112 15.633-9.196 27.142-9.254a45.364 45.364 0 0 1 10.628 1.158 31.042 31.042 0 0 1 8.257 3.155c2.289 1.32 4.35 3 6.103 4.976a30.55 30.55 0 0 1 4.36 6.178 39.382 39.382 0 0 1 2.825 7.215 54.426 54.426 0 0 1 1.656 7.633c.332 2.405.582 5.02.75 7.843l-24.073 3.816c-.11-2.823-.25-5.173-.418-7.05a42.205 42.205 0 0 0-.95-5.846 14.164 14.164 0 0 0-1.866-4.732 8.84 8.84 0 0 0-3.157-2.78 8.67 8.67 0 0 0-4.734-.871 9.165 9.165 0 0 0-7.184 3.564 12.874 12.874 0 0 0-2.529 8.043c-.027 2.284.266 4.56.872 6.762a18.452 18.452 0 0 0 2.86 5.768 40.612 40.612 0 0 0 3.61 4.357c1.08 1.11 2.644 2.603 4.69 4.48l14.526 12.608a97.092 97.092 0 0 1 8.091 8.043 64.807 64.807 0 0 1 6.513 8.88 41.3 41.3 0 0 1 4.586 10.97 48.318 48.318 0 0 1 1.622 12.696c0 10.01-3.252 18.224-9.757 24.643-6.504 6.42-15.034 9.623-25.59 9.612zM1035.236 313.507l2.24-137.549h29.47l17.343 87.731 18.266-87.766h28.633l2.275 137.584h-20.533l-1.909-92.83-17.848 92.83h-17.097l-18.31-93.326-1.744 93.326zM1155.583 313.507V175.958h27.805v137.549zM1242.572 315.328c-12.788 0-22.335-3.512-28.642-10.535-6.306-7.024-9.736-17.82-10.288-32.39l24.239-4.357c.11 8.575 1.273 15.032 3.487 19.371 2.215 4.34 5.577 6.51 10.088 6.51 3.267 0 5.632-1.052 7.097-3.155a13.936 13.936 0 0 0 2.197-8.13c0-5.42-1.162-9.969-3.487-13.646-2.325-3.677-6.104-7.784-11.335-12.321L1221.15 243.9a73.714 73.714 0 0 1-9.086-9.167 37.227 37.227 0 0 1-5.806-10.866 43.12 43.12 0 0 1-2.363-14.64c0-11.118 3.293-19.733 9.878-25.845 6.586-6.111 15.633-9.196 27.142-9.254a45.364 45.364 0 0 1 10.629 1.16 31.042 31.042 0 0 1 8.257 3.153c2.288 1.32 4.35 3 6.103 4.976a30.55 30.55 0 0 1 4.36 6.178 39.382 39.382 0 0 1 2.824 7.215 54.426 54.426 0 0 1 1.657 7.634c.331 2.405.581 5.019.75 7.842l-24.073 3.817c-.11-2.823-.25-5.173-.419-7.05a42.205 42.205 0 0 0-.95-5.847 14.164 14.164 0 0 0-1.866-4.731 8.84 8.84 0 0 0-3.156-2.78 8.67 8.67 0 0 0-4.735-.871 9.165 9.165 0 0 0-7.184 3.564 12.874 12.874 0 0 0-2.529 8.042c-.027 2.284.266 4.56.872 6.762a18.452 18.452 0 0 0 2.86 5.769 40.612 40.612 0 0 0 3.61 4.357c1.08 1.11 2.645 2.602 4.69 4.479l14.526 12.609a97.092 97.092 0 0 1 8.091 8.043 64.807 64.807 0 0 1 6.513 8.88 41.3 41.3 0 0 1 4.691 10.953 48.318 48.318 0 0 1 1.622 12.696c0 10.009-3.252 18.223-9.757 24.642-6.504 6.42-15.08 9.655-25.729 9.708zM1297.283 313.507V175.958h27.805v137.549zM1387.062 315.328c-7.47 0-13.834-1.011-19.095-3.033a28.45 28.45 0 0 1-12.572-9.045 38.419 38.419 0 0 1-6.81-14.142 76.64 76.64 0 0 1-2.118-19.17v-50.76a76.135 76.135 0 0 1 2.118-19.117 37.26 37.26 0 0 1 6.81-13.943 28.598 28.598 0 0 1 12.607-8.914c5.232-1.992 11.596-2.989 19.095-2.989 14.531 0 24.976 3.776 31.335 11.328 6.36 7.552 9.527 18.753 9.504 33.601v50.767c0 14.82-3.168 26.086-9.504 33.801-6.335 7.715-16.792 11.587-31.37 11.616zm-5.397-21.192a12.762 12.762 0 0 0 5.397 1.037 13.085 13.085 0 0 0 5.44-1.037 9.678 9.678 0 0 0 3.566-2.615 11.613 11.613 0 0 0 2.032-4.147c.476-1.61.795-3.261.95-4.932.14-1.575.21-3.469.21-5.682v-64.378c0-2.213-.07-4.107-.21-5.681a24.264 24.264 0 0 0-.95-4.854 11.23 11.23 0 0 0-2.032-4.026 9.59 9.59 0 0 0-3.566-2.527 13.547 13.547 0 0 0-5.44-.993 13.233 13.233 0 0 0-5.397.993 9.198 9.198 0 0 0-3.488 2.527 11.151 11.151 0 0 0-1.953 4.07 26.999 26.999 0 0 0-.872 4.853c-.14 1.551-.209 3.43-.209 5.638v64.378c0 2.213.07 4.107.21 5.682.14 1.666.432 3.317.871 4.932.367 1.499 1.032 2.91 1.953 4.147a9.32 9.32 0 0 0 3.488 2.615zm-2.241-130.038l10.297-34.097h26.157l-21.004 34.097h-15.45zM1448.931 313.507V175.958h19.504l30.708 71.454v-71.454h23.245v137.549h-18.676l-30.874-75.96v75.994zM772.413 483.453V345.905h59.934v19.414h-31.946v36.415h24.823v19.58H800.4v43.056h32.26v19.083zM851.415 483.453V345.905h19.504l30.709 71.453v-71.453h23.244v137.548h-18.676l-30.873-75.985v75.985zM1021.565 483.453L995.25 345.905h24.317l16.27 94.11 15.275-94.11h25.399l-26.48 137.548zM1095.275 483.453V345.905h27.813v137.548zM1168.112 483.453L1141.8 345.905h24.317l16.27 94.11 15.275-94.11h25.398l-26.48 137.548zM1278.058 485.274c-7.47 0-13.834-1.01-19.094-3.032a28.44 28.44 0 0 1-12.573-9.045 38.41 38.41 0 0 1-6.81-14.143 76.64 76.64 0 0 1-2.118-19.17v-50.715a76.135 76.135 0 0 1 2.118-19.17 37.26 37.26 0 0 1 6.81-13.943 28.607 28.607 0 0 1 12.573-8.88c5.23-1.992 11.596-2.988 19.094-2.988 14.531 0 24.977 3.776 31.336 11.328 6.359 7.552 9.527 18.752 9.503 33.6v50.768c0 14.82-3.168 26.086-9.503 33.8-6.336 7.716-16.781 11.579-31.336 11.59zm-5.397-21.166a12.77 12.77 0 0 0 5.397 1.037 13.085 13.085 0 0 0 5.44-1.037 9.669 9.669 0 0 0 3.567-2.614 11.613 11.613 0 0 0 2.031-4.148c.476-1.609.795-3.26.95-4.932.14-1.574.21-3.468.21-5.681V382.32c0-2.213-.07-4.107-.21-5.681a24.273 24.273 0 0 0-.95-4.854 11.221 11.221 0 0 0-2.031-4.026 9.538 9.538 0 0 0-3.566-2.527 13.547 13.547 0 0 0-5.441-.993 13.233 13.233 0 0 0-5.397.993 9.19 9.19 0 0 0-3.488 2.527 11.151 11.151 0 0 0-1.953 4.06 26.999 26.999 0 0 0-.872 4.854c-.14 1.551-.209 3.43-.209 5.638v64.37c0 2.213.07 4.107.21 5.681a27.74 27.74 0 0 0 .871 4.932c.368 1.5 1.032 2.91 1.953 4.148a9.32 9.32 0 0 0 3.488 2.666z"/></g></svg>