<svg width="1440" height="576" viewBox="0 0 1440 576" xmlns="http://www.w3.org/2000/svg"><title>hero-content-stream-large</title><g fill-rule="nonzero" fill="none"><path d="M1146.474 97.12l12.665-59.085h8.46l12.665 59.084h-8.446l-3.184-14.746h-10.551l-3.163 14.774-8.446-.028zm12.665-21.128h8.46l-4.255-25.323-4.205 25.323z" fill="#FFF"/><path fill="#E7503D" d="M623.954 445.576h193.795v81.707H623.954z"/><path d="M673.975 508.453l6.892-37.964h10.807l6.83 37.964h-8.51l-1.192-7.579h-4.92l-1.135 7.579h-8.772zm10.637-12.938h3.41l-1.716-14.18-1.694 14.18zM721.386 515.826a17.346 17.346 0 0 1-4.176-2.659 18.13 18.13 0 0 1-3.908-4.168h-.758a16.242 16.242 0 0 1-5.546-.837 8.19 8.19 0 0 1-3.637-2.495 10.258 10.258 0 0 1-1.95-3.914 20.987 20.987 0 0 1-.596-5.324v-13.988c-.03-1.792.17-3.582.596-5.324a10.258 10.258 0 0 1 1.95-3.913 8.19 8.19 0 0 1 3.637-2.496 18.831 18.831 0 0 1 11.098 0 8.261 8.261 0 0 1 3.666 2.496 10.293 10.293 0 0 1 1.972 3.913c.433 1.741.638 3.53.61 5.324v14.01c0 5.586-1.61 9.272-4.83 11.059a14.82 14.82 0 0 0 3.893 3.112l-2.02 5.204zm-8.842-13.236c.435.018.866-.098 1.234-.333.34-.234.59-.576.709-.972.126-.38.214-.772.262-1.17.041-.433.06-.868.057-1.304v-18.716c.003-.436-.016-.871-.057-1.305a5.777 5.777 0 0 0-.262-1.155 1.808 1.808 0 0 0-.71-.964 2.128 2.128 0 0 0-1.233-.334 2.064 2.064 0 0 0-1.057.256c-.26.14-.483.339-.652.581a2.58 2.58 0 0 0-.334.915c-.068.317-.11.64-.127.964v20.822c.016.326.059.651.127.97.053.324.166.634.334.915.388.557 1.03.88 1.709.858v-.028zM739.788 509.027a17.81 17.81 0 0 1-5.545-.709 7.75 7.75 0 0 1-3.546-2.311 9.28 9.28 0 0 1-1.886-3.743 21.356 21.356 0 0 1-.56-5.268v-26.529h9.218v28.06c-.003.444.02.886.071 1.326.056.41.148.813.277 1.206.116.405.366.76.709 1.006a2.411 2.411 0 0 0 2.517 0c.343-.247.592-.601.71-1.006.127-.392.215-.796.262-1.206.04-.44.06-.883.056-1.325v-28.06h9.276v26.493a20.952 20.952 0 0 1-.575 5.267 9.478 9.478 0 0 1-1.886 3.744 7.673 7.673 0 0 1-3.546 2.31c-1.8.54-3.674.791-5.552.745zM755.552 508.453v-37.986h9.268v37.986h-9.268zm1.921-41.353l2.93-9.5h8.672l-6.113 9.5h-5.489zM362.636 97.12V38.034h13.09c6.18 0 10.538 1.264 13.077 3.793 2.538 2.529 3.808 6.891 3.808 13.087V78.12c0 6.485-1.29 11.27-3.872 14.356-2.581 3.087-6.94 4.63-13.076 4.63l-13.027.014zm8.446-6.332h4.652c1.193.02 2.383-.106 3.545-.376a4.78 4.78 0 0 0 2.404-1.417 11.23 11.23 0 0 0 1.419-1.915c.42-.89.66-1.853.709-2.835.141-1.277.224-2.326.248-3.148.023-.823.023-2.103 0-3.843V54.405c0-.638-.033-1.392-.1-2.262a14.509 14.509 0 0 0-.248-2.063 18.924 18.924 0 0 0-.46-1.701 4.253 4.253 0 0 0-.71-1.468 11.196 11.196 0 0 0-1.085-1.106 4.177 4.177 0 0 0-1.482-.858 12.646 12.646 0 0 0-1.964-.46c-.83-.128-1.67-.19-2.51-.185h-4.482l.064 46.486zM412.048 97.12V38.034h8.445V97.12zM456.758 97.715c-5.323 0-9.384-1.56-12.183-4.68-2.799-3.119-4.366-7.373-4.701-12.76l8.445-2.127c.416 8.44 3.231 12.661 8.446 12.661 4.221 0 6.332-2.11 6.332-6.33a11.34 11.34 0 0 0-.51-3.481 9.216 9.216 0 0 0-1.568-2.936 20.235 20.235 0 0 0-1.914-2.126c-.572-.54-1.352-1.203-2.34-1.993L446.213 65.5a16.498 16.498 0 0 1-4.638-5.785 17.855 17.855 0 0 1-1.73-7.997c0-4.353 1.352-7.815 4.056-10.386 2.704-2.571 6.288-3.857 10.75-3.857 4.794 0 8.605 1.182 11.432 3.545s4.569 5.671 5.226 9.925c.066.473.144 1.11.234 1.914l-8.446 2.127c0-.373-.054-.933-.163-1.68a12.873 12.873 0 0 0-2.524-6.444c-1.31-1.617-3.23-2.425-5.758-2.425a6.227 6.227 0 0 0-4.68 1.694 6.507 6.507 0 0 0-1.653 4.729 10.272 10.272 0 0 0 4.255 8.344l10.552 8.444c5.625 4.551 8.44 9.987 8.445 16.306 0 4.33-1.335 7.713-4.006 10.152-2.671 2.439-6.274 3.642-10.807 3.609zM490.171 97.12V38.034h23.217v6.331h-14.771v18.993h10.552v6.33h-10.552v27.43zM530.102 97.12V38.034h10.566c6.287 0 11.015 1.22 14.182 3.658 3.167 2.44 4.76 6.494 4.78 12.166a18.77 18.77 0 0 1-1.873 8.84 9.927 9.927 0 0 1-5.51 4.878l9.496 29.542h-8.347l-8.51-27.43h-6.332v27.43h-8.452zm8.445-33.761h2.128c3.517 0 6.155-.742 7.913-2.226 1.76-1.484 2.638-3.907 2.638-7.267 0-3.36-.879-5.783-2.638-7.267-1.758-1.484-4.398-2.228-7.92-2.233h-2.128l.007 18.993zM601.496 96.73a23.094 23.094 0 0 1-13.587 0 12.985 12.985 0 0 1-4.829-2.837 13.91 13.91 0 0 1-3.085-4.6 24.667 24.667 0 0 1-1.68-5.984 48.198 48.198 0 0 1-.497-7.267V38.035h8.446v37.957c0 1.825.038 3.351.113 4.58a23.44 23.44 0 0 0 .61 3.942 9.754 9.754 0 0 0 1.369 3.346 6.644 6.644 0 0 0 2.475 2.077 9.526 9.526 0 0 0 7.75 0 6.644 6.644 0 0 0 2.475-2.077 9.782 9.782 0 0 0 1.369-3.346c.314-1.294.518-2.613.61-3.942.075-1.229.113-2.755.113-4.58V38.035h8.446v37.957a48.198 48.198 0 0 1-.497 7.267 24.667 24.667 0 0 1-1.68 5.984 13.917 13.917 0 0 1-3.085 4.6 12.992 12.992 0 0 1-4.836 2.886zM639.632 97.12V45.556H629.08v-7.522h29.55v7.515h-10.552v51.57zM676.286 97.12V38.034h23.217v6.331h-14.77v18.993h10.55v6.33h-10.55v21.1h14.77v6.33zM745.418 97.12V38.034h13.09c6.18 0 10.538 1.264 13.077 3.793 2.539 2.529 3.808 6.891 3.808 13.087V78.12c0 6.485-1.29 11.27-3.872 14.356-2.581 3.087-6.942 4.635-13.083 4.644h-13.02zm8.446-6.332h4.652c1.193.02 2.383-.106 3.545-.376a4.78 4.78 0 0 0 2.404-1.417 11.23 11.23 0 0 0 1.419-1.915c.42-.89.66-1.853.709-2.835.142-1.277.224-2.326.248-3.148.024-.823.024-2.103 0-3.843V54.405c0-.638-.033-1.392-.1-2.262a14.51 14.51 0 0 0-.248-2.063 18.924 18.924 0 0 0-.46-1.701 4.253 4.253 0 0 0-.71-1.468 11.196 11.196 0 0 0-1.085-1.106 4.177 4.177 0 0 0-1.482-.858 12.646 12.646 0 0 0-1.964-.46c-.83-.128-1.67-.19-2.51-.185H753.8l.064 46.486zM794.603 97.12V38.034h23.216v6.331h-14.792v18.993h10.552v6.33h-10.552v21.1h14.771v6.33zM863.714 97.12V38.034h6.332l14.778 36.54v-36.54h8.446V97.12h-6l-15.104-39.304v39.304zM936.47 96.73a23.094 23.094 0 0 1-13.588 0 12.985 12.985 0 0 1-4.829-2.837 13.91 13.91 0 0 1-3.084-4.6 24.667 24.667 0 0 1-1.681-5.984 48.198 48.198 0 0 1-.496-7.267V38.035h8.445v37.957c0 1.825.038 3.351.114 4.58a23.44 23.44 0 0 0 .61 3.942 9.754 9.754 0 0 0 1.368 3.346 6.644 6.644 0 0 0 2.475 2.077 9.526 9.526 0 0 0 7.75 0 6.644 6.644 0 0 0 2.475-2.077 9.782 9.782 0 0 0 1.369-3.346c.314-1.294.518-2.613.61-3.942.075-1.229.113-2.755.113-4.58V38.035h8.446v37.957a48.198 48.198 0 0 1-.496 7.267 24.667 24.667 0 0 1-1.681 5.984 13.917 13.917 0 0 1-3.085 4.6 12.992 12.992 0 0 1-4.836 2.886zM966.096 97.12V38.034h23.217v6.331h-14.771v18.993h10.551v6.33h-10.551v21.1h14.77v6.33zM1022.549 97.715c-5.323 0-9.384-1.56-12.183-4.68-2.798-3.119-4.366-7.373-4.701-12.76l8.445-2.127c.416 8.44 3.232 12.661 8.446 12.661 4.222 0 6.332-2.11 6.332-6.33a11.34 11.34 0 0 0-.51-3.481 9.216 9.216 0 0 0-1.567-2.936 20.235 20.235 0 0 0-1.915-2.126c-.572-.54-1.352-1.203-2.34-1.993l-10.552-8.443a16.498 16.498 0 0 1-4.666-5.814 17.855 17.855 0 0 1-1.73-7.997c0-4.352 1.352-7.815 4.056-10.386 2.704-2.57 6.288-3.856 10.75-3.856 4.794 0 8.604 1.181 11.431 3.544 2.828 2.364 4.57 5.672 5.227 9.926.066.472.144 1.11.234 1.914l-8.446 2.127c0-.374-.054-.934-.163-1.68a12.873 12.873 0 0 0-2.524-6.445c-1.31-1.616-3.23-2.424-5.759-2.424a6.227 6.227 0 0 0-4.68 1.694 6.507 6.507 0 0 0-1.652 4.729 10.272 10.272 0 0 0 4.255 8.344l10.551 8.444c5.626 4.551 8.441 9.986 8.446 16.306 0 4.329-1.335 7.713-4.006 10.152-2.671 2.439-6.264 3.65-10.78 3.637zM1063.359 97.12V45.556h-10.552v-7.522h29.549v7.515h-10.552v51.57zM1099.992 97.12V38.034h10.551c6.288 0 11.015 1.22 14.183 3.658 3.167 2.44 4.76 6.494 4.78 12.166a18.77 18.77 0 0 1-1.88 8.833 9.927 9.927 0 0 1-5.51 4.878l9.495 29.542h-8.332l-8.51-27.43h-6.332V97.12h-8.445zm8.445-33.761h2.128c3.517 0 6.155-.742 7.913-2.226 1.76-1.484 2.638-3.907 2.638-7.267 0-3.36-.879-5.783-2.638-7.267-1.758-1.484-4.396-2.226-7.913-2.226h-2.128V63.36z" fill="#FFF"/><path fill="#F9A51A" d="M462.501 421.961h70.586v5.672h-70.586zM1041.312 298.15l-11.324-11.025-11.325 11.024-13.31-12.952 3.957-4.062 9.353 9.095 11.325-11.024 11.324 11.024 11.325-11.024 11.332 11.024 11.324-11.024 11.332 11.024 11.324-11.024 11.332 11.024 11.325-11.024 11.332 11.024 11.324-11.024 11.332 11.024 11.332-11.024 11.331 11.032 9.354-9.103 3.956 4.062-13.31 12.952-11.331-11.03-11.332 11.03-11.332-11.024-11.324 11.024-11.332-11.024-11.325 11.024-11.332-11.024-11.324 11.024-11.332-11.024-11.324 11.024-11.332-11.024zM360.197 120.656h83.087v5.672h-83.087zM321.394 120.656h18.48v5.672h-18.48zM292.412 120.656h9.24v5.672h-9.24zM250.156 120.656h9.24v5.672h-9.24zM378.407 261.15v-95.12h-17.89V149.24h58.253v16.788h-17.614v95.12zM433.002 261.15V149.24h28.315a73.701 73.701 0 0 1 15.324 1.418 32.773 32.773 0 0 1 11.346 4.693 20.05 20.05 0 0 1 7.425 9.181c1.64 3.914 2.463 8.728 2.467 14.442 0 7.198-1.023 13.025-3.07 17.482-2.047 4.457-5.569 7.832-10.566 10.124l15.459 54.59h-23.224l-12.828-50.478h-7.9v50.485l-22.748-.029zm22.749-64.253h5.673c5.488 0 9.381-1.293 11.679-3.878 2.297-2.585 3.446-6.714 3.446-12.385 0-5.535-1.002-9.574-3.007-12.116-2.004-2.543-5.606-3.817-10.807-3.822h-6.956l-.028 32.201zM513.274 261.15l21.877-111.909h24.975L581.93 261.15H560.8l-4.12-24.77h-17.727l-4.12 24.77h-21.558zm27.812-38.88h13.296l-6.68-44.543-6.616 44.543zM596.986 261.15V149.24h15.863l24.975 58.134v-58.134h18.905V261.15h-15.19l-25.116-61.799v61.828zM704.772 262.631c-10.4 0-18.165-2.857-23.295-8.571-5.13-5.714-7.918-14.498-8.367-26.352l19.713-3.545c.09 6.976 1.035 12.23 2.837 15.76 1.8 3.53 4.526 5.317 8.176 5.36 2.657 0 4.58-.856 5.772-2.566a11.341 11.341 0 0 0 1.787-6.615c0-4.41-.946-8.11-2.837-11.102-1.89-2.992-4.963-6.333-9.218-10.025l-12.02-10.393a59.963 59.963 0 0 1-7.389-7.458 30.291 30.291 0 0 1-4.722-8.84 35.093 35.093 0 0 1-1.922-11.911c0-9.046 2.678-16.056 8.034-21.028 5.356-4.972 12.715-7.481 22.075-7.529 2.909-.027 5.81.29 8.644.943 2.35.53 4.611 1.395 6.716 2.567a19.996 19.996 0 0 1 4.963 4.048 24.856 24.856 0 0 1 3.546 5.026 32.047 32.047 0 0 1 2.298 5.87 44.293 44.293 0 0 1 1.347 6.21c.27 1.957.473 4.084.61 6.381l-19.58 3.105c-.089-2.297-.202-4.208-.34-5.735a34.348 34.348 0 0 0-.772-4.757 11.526 11.526 0 0 0-1.518-3.85 7.19 7.19 0 0 0-2.567-2.261 7.05 7.05 0 0 0-3.85-.71 7.453 7.453 0 0 0-5.844 2.9 10.477 10.477 0 0 0-2.056 6.544c-.022 1.858.216 3.71.71 5.502a15.014 15.014 0 0 0 2.325 4.693 33.039 33.039 0 0 0 2.936 3.545c.88.902 2.15 2.117 3.815 3.644l11.814 10.258a78.98 78.98 0 0 1 6.58 6.544 52.725 52.725 0 0 1 5.297 7.224 33.607 33.607 0 0 1 3.73 8.926 39.324 39.324 0 0 1 1.32 10.33c0 8.143-2.646 14.826-7.936 20.048-5.29 5.223-12.227 7.83-20.812 7.82zM748.751 261.15l1.823-111.909h23.968l14.104 71.378 14.856-71.406h23.288l1.85 111.936h-16.7l-1.552-75.524-14.516 75.524h-13.906l-14.891-75.928-1.418 75.928zM846.63 261.15V149.24h22.615V261.15zM917.38 262.631c-10.4 0-18.166-2.857-23.295-8.571-5.13-5.714-7.918-14.498-8.368-26.352l19.714-3.545c.09 6.976 1.035 12.23 2.836 15.76 1.802 3.53 4.536 5.296 8.205 5.296 2.657 0 4.58-.855 5.772-2.566a11.341 11.341 0 0 0 1.787-6.615c0-4.41-.945-8.11-2.836-11.102-1.891-2.992-4.964-6.333-9.219-10.025l-12.02-10.393a59.963 59.963 0 0 1-7.388-7.458 30.291 30.291 0 0 1-4.723-8.84 35.093 35.093 0 0 1-1.922-11.911c0-9.046 2.678-16.055 8.034-21.027 5.357-4.973 12.715-7.482 22.075-7.53 2.909-.027 5.81.29 8.644.943 2.35.531 4.611 1.395 6.716 2.567a19.996 19.996 0 0 1 4.964 4.048 24.856 24.856 0 0 1 3.545 5.026 32.047 32.047 0 0 1 2.298 5.87 44.293 44.293 0 0 1 1.347 6.21c.27 1.958.473 4.084.61 6.381l-19.579 3.106c-.09-2.297-.203-4.21-.34-5.736a34.348 34.348 0 0 0-.773-4.757 11.526 11.526 0 0 0-1.518-3.85 7.19 7.19 0 0 0-2.567-2.261 7.05 7.05 0 0 0-3.85-.709 7.453 7.453 0 0 0-5.843 2.9 10.477 10.477 0 0 0-2.057 6.543c-.022 1.858.217 3.71.71 5.502a15.014 15.014 0 0 0 2.325 4.693 33.039 33.039 0 0 0 2.936 3.545c.88.903 2.151 2.117 3.815 3.644l11.814 10.258a78.98 78.98 0 0 1 6.58 6.544 52.725 52.725 0 0 1 5.298 7.224 33.607 33.607 0 0 1 3.815 8.912 39.324 39.324 0 0 1 1.319 10.33c0 8.143-2.645 14.826-7.935 20.048-5.29 5.223-12.266 7.855-20.926 7.898zM961.877 261.15V149.24h22.614V261.15zM1034.895 262.631c-6.075 0-11.252-.822-15.53-2.467a23.138 23.138 0 0 1-10.225-7.36 31.262 31.262 0 0 1-5.539-11.505 62.374 62.374 0 0 1-1.723-15.597v-41.297a61.963 61.963 0 0 1 1.723-15.554 30.319 30.319 0 0 1 5.539-11.343 23.259 23.259 0 0 1 10.253-7.253c4.255-1.621 9.432-2.432 15.53-2.432 11.819 0 20.314 3.072 25.486 9.217 5.172 6.144 7.748 15.256 7.73 27.337v41.303c0 12.057-2.577 21.224-7.73 27.5-5.153 6.277-13.658 9.427-25.514 9.451zm-4.39-17.242c1.385.597 2.883.885 4.39.844 1.518.038 3.027-.25 4.425-.844a7.871 7.871 0 0 0 2.9-2.127 9.45 9.45 0 0 0 1.652-3.374c.388-1.31.646-2.653.773-4.013.114-1.28.17-2.821.17-4.622v-52.378c0-1.8-.056-3.341-.17-4.622a19.747 19.747 0 0 0-.773-3.949 9.138 9.138 0 0 0-1.652-3.275 7.8 7.8 0 0 0-2.9-2.056 11.015 11.015 0 0 0-4.425-.808 10.76 10.76 0 0 0-4.39.808 7.481 7.481 0 0 0-2.836 2.056 9.074 9.074 0 0 0-1.589 3.31 21.973 21.973 0 0 0-.709 3.95c-.113 1.261-.17 2.79-.17 4.586v52.378c0 1.8.057 3.341.17 4.622.115 1.356.352 2.7.71 4.013a9.4 9.4 0 0 0 1.588 3.374 7.58 7.58 0 0 0 2.836 2.127zm-1.822-105.797l8.375-27.74h21.273l-17.083 27.74h-12.565zM1085.214 261.15V149.24h15.863l24.975 58.134v-58.134h18.905V261.15h-15.19l-25.11-61.799v61.828zM534.995 399.416V287.508h48.744v15.796h-25.982v29.627h20.189v15.93h-20.189v35.03h26.238v15.525zM599.248 399.416V287.508h15.863l24.975 58.134v-58.134h18.905v111.908h-15.19l-25.11-61.82v61.82zM737.632 399.416l-21.4-111.908h19.776l13.233 76.567 12.423-76.567h20.657l-21.536 111.908zM797.581 399.416V287.508h22.621v111.908zM856.82 399.416l-21.4-111.908h19.777l13.232 76.567 12.424-76.567h20.657l-21.536 111.908zM946.24 400.898c-6.074 0-11.25-.823-15.529-2.467a23.131 23.131 0 0 1-10.225-7.36 31.255 31.255 0 0 1-5.539-11.506 62.374 62.374 0 0 1-1.723-15.596v-41.261a61.963 61.963 0 0 1 1.723-15.597 30.319 30.319 0 0 1 5.539-11.344 23.266 23.266 0 0 1 10.225-7.224c4.255-1.621 9.431-2.432 15.53-2.432 11.818 0 20.314 3.073 25.485 9.217 5.172 6.144 7.749 15.256 7.73 27.337v41.304c0 12.056-2.577 21.223-7.73 27.5-5.152 6.276-13.648 9.42-25.485 9.429zm-4.389-17.22c1.385.596 2.883.884 4.39.843 1.518.038 3.027-.25 4.425-.844a7.864 7.864 0 0 0 2.9-2.126 9.45 9.45 0 0 0 1.652-3.375c.388-1.31.646-2.653.773-4.013.114-1.28.17-2.821.17-4.622v-52.406c0-1.8-.056-3.341-.17-4.622a19.754 19.754 0 0 0-.773-3.949 9.13 9.13 0 0 0-1.652-3.275 7.758 7.758 0 0 0-2.9-2.056 11.015 11.015 0 0 0-4.425-.809 10.76 10.76 0 0 0-4.39.809 7.474 7.474 0 0 0-2.836 2.056 9.074 9.074 0 0 0-1.589 3.303 21.973 21.973 0 0 0-.709 3.95c-.113 1.261-.17 2.79-.17 4.586v52.37c0 1.801.057 3.342.17 4.623.115 1.356.353 2.699.71 4.012a9.4 9.4 0 0 0 1.588 3.375 7.58 7.58 0 0 0 2.836 2.17z"/></g></svg>